0
SECTION
2
HEADER
9
$INSUNITS
70
4
9
$ACADVER
1
AC1014
9
$HANDSEED
5
FFFF
0
ENDSEC
0
SECTION
2
TABLES
0
TABLE
2
VPORT
5
8
100
AcDbSymbolTable
0
ENDTAB
0
TABLE
2
LTYPE
5
5
100
AcDbSymbolTable
0
LTYPE
5
14
100
AcDbSymbolTableRecord
100
AcDbLinetypeTableRecord
2
BYBLOCK
70
0
0
LTYPE
5
15
100
AcDbSymbolTableRecord
100
AcDbLinetypeTableRecord
2
BYLAYER
70
0
0
ENDTAB
0
TABLE
2
LAYER
5
2
100
AcDbSymbolTable
70
2
0
LAYER
5
50
100
AcDbSymbolTableRecord
100
AcDbLayerTableRecord
2
0
70
0
6
CONTINUOUS
0
ENDTAB
0
TABLE
2
STYLE
5
3
100
AcDbSymbolTable
70
1
0
STYLE
5
11
100
AcDbSymbolTableRecord
100
AcDbTextStyleTableRecord
2
STANDARD
70
0
0
ENDTAB
0
TABLE
2
VIEW
5
6
100
AcDbSymbolTable
70
0
0
ENDTAB
0
TABLE
2
UCS
5
7
100
AcDbSymbolTable
70
0
0
ENDTAB
0
TABLE
2
APPID
5
9
100
AcDbSymbolTable
70
2
0
APPID
5
12
100
AcDbSymbolTableRecord
100
AcDbRegAppTableRecord
2
ACAD
70
0
0
ENDTAB
0
TABLE
2
DIMSTYLE
5
A
100
AcDbSymbolTable
70
1
0
ENDTAB
0
TABLE
2
BLOCK_RECORD
5
1
100
AcDbSymbolTable
70
1
0
BLOCK_RECORD
5
1F
100
AcDbSymbolTableRecord
100
AcDbBlockTableRecord
2
*MODEL_SPACE
0
BLOCK_RECORD
5
1B
100
AcDbSymbolTableRecord
100
AcDbBlockTableRecord
2
*PAPER_SPACE
0
ENDTAB
0
ENDSEC
0
SECTION
2
BLOCKS
0
BLOCK
5
20
100
AcDbEntity
100
AcDbBlockBegin
2
*MODEL_SPACE
0
ENDBLK
5
21
100
AcDbEntity
100
AcDbBlockEnd
0
BLOCK
5
1C
100
AcDbEntity
100
AcDbBlockBegin
2
*PAPER_SPACE
0
ENDBLK
5
1D
100
AcDbEntity
100
AcDbBlockEnd
0
ENDSEC
0
SECTION
2
ENTITIES
0
CIRCLE
5
100
100
AcDbEntity
8
0
100
AcDbCircle
10
-76.149625295718394
20
-83.005876707427603
30
0
40
6.3499511919950873
210
0
220
0
230
1
0
CIRCLE
5
101
100
AcDbEntity
8
0
100
AcDbCircle
10
-76.149625295718394
20
-83.005876707427603
30
0
40
22.75
210
0
220
0
230
1
0
CIRCLE
5
102
100
AcDbEntity
8
0
100
AcDbCircle
10
-76.149625295718394
20
-83.005876707427603
30
0
40
25.449999999999999
210
0
220
0
230
1
0
CIRCLE
5
103
100
AcDbEntity
8
0
100
AcDbCircle
10
-76.149625295718394
20
-83.005876707427603
30
0
40
24.300000000000011
210
0
220
0
230
1
0
LINE
5
104
100
AcDbEntity
8
0
100
AcDbLine
10
-50.831235064574315
20
-85.590758929794447
30
0
11
-52.089361507954891
21
-86.410829932251289
31
0
0
LINE
5
105
100
AcDbEntity
8
0
100
AcDbLine
10
-51.271929523898081
20
-88.372696350824782
30
0
11
-52.214457419056437
21
-87.200842585239982
31
0
0
LINE
5
106
100
AcDbEntity
8
0
100
AcDbLine
10
-50.738659681136262
20
-84.414892865789625
30
0
11
-51.852901810794485
21
-83.404910411703611
31
0
0
LINE
5
107
100
AcDbEntity
8
0
100
AcDbLine
10
-50.738581794131584
20
-81.598265908782139
30
0
11
-51.852931244688669
21
-82.605054813492146
31
0
0
LINE
5
108
100
AcDbEntity
8
0
100
AcDbLine
10
-50.831092145965272
20
-80.422394726679087
30
0
11
-52.089612170933549
21
-79.599152704051022
31
0
0
LINE
5
109
100
AcDbEntity
8
0
100
AcDbLine
10
-51.271632749116222
20
-77.640432937224929
30
0
11
-52.2147662250633
21
-78.809149260013314
31
0
0
LINE
5
110
100
AcDbEntity
8
0
100
AcDbLine
10
-51.546950924335221
20
-76.493510488019666
30
0
11
-52.918759904810358
21
-75.877279847630319
31
0
0
LINE
5
111
100
AcDbEntity
8
0
100
AcDbLine
10
-52.417262445921786
20
-73.814714998177038
30
0
11
-53.165956871000489
21
-75.116581064429667
31
0
0
LINE
5
112
100
AcDbEntity
8
0
100
AcDbLine
10
-52.868609197323579
20
-72.724982318986434
30
0
11
-54.319928643433279
21
-72.3309367043544
31
0
0
LINE
5
113
100
AcDbEntity
8
0
100
AcDbLine
10
-54.147261679285954
20
-70.215313964127773
30
0
11
-54.68308171197652
21
-71.618273510647739
31
0
0
LINE
5
114
100
AcDbEntity
8
0
100
AcDbLine
10
-54.76352335191703
20
-69.209603890128875
30
0
11
-56.258616962245
21
-69.047446012048823
31
0
0
LINE
5
115
100
AcDbEntity
8
0
100
AcDbLine
10
-56.419032126545019
20
-66.930859034262525
30
0
11
-56.728784099357853
21
-68.400366540858755
31
0
0
LINE
5
116
100
AcDbEntity
8
0
100
AcDbLine
10
-57.185034312769986
20
-66.033935485237606
30
0
11
-58.687087920698708
21
-66.107658208839041
31
0
0
LINE
5
117
100
AcDbEntity
8
0
100
AcDbLine
10
-59.17663525971362
20
-64.042224389435617
30
0
11
-59.252692051070213
21
-65.542095704279859
31
0
0
LINE
5
118
100
AcDbEntity
8
0
100
AcDbLine
10
-60.073516443492103
20
-63.27617259988024
30
0
11
-61.545544504164269
21
-63.583960627036369
31
0
0
LINE
5
119
100
AcDbEntity
8
0
100
AcDbLine
10
-62.352169737693046
20
-61.620537801431396
30
0
11
-62.192658576972178
21
-63.113841114964693
31
0
0
LINE
5
120
100
AcDbEntity
8
0
100
AcDbLine
10
-63.357845727702433
20
-61.004220508784535
30
0
11
-64.763602024883241
21
-61.538495076776876
31
0
0
LINE
5
121
100
AcDbEntity
8
0
100
AcDbLine
10
-65.867443362640742
20
-59.725429231163503
30
0
11
-65.476291944006576
21
-61.175394459817127
31
0
0
LINE
5
122
100
AcDbEntity
8
0
100
AcDbLine
10
-66.957151078359715
20
-59.274022212609971
30
0
11
-68.262021226574916
21
-60.021627708418919
31
0
0
LINE
5
123
100
AcDbEntity
8
0
100
AcDbLine
10
-69.635898431386181
20
-58.403562541136729
30
0
11
-69.022738200922589
21
-59.774486728822502
31
0
0
LINE
5
124
100
AcDbEntity
8
0
100
AcDbLine
10
-70.782805652321215
20
-58.12818093560729
30
0
11
-71.954659417906015
21
-59.070708830765646
31
0
0
LINE
5
125
100
AcDbEntity
8
0
100
AcDbLine
10
-73.564743073351551
20
-57.687486476283524
30
0
11
-72.744672070894708
21
-58.945612919664107
31
0
0
LINE
5
126
100
AcDbEntity
8
0
100
AcDbLine
10
-74.740609137356387
20
-57.5949110928455
30
0
11
-75.750591591442387
21
-58.709153222503716
31
0
0
LINE
5
127
100
AcDbEntity
8
0
100
AcDbLine
10
-77.557236094363859
20
-57.594833205840814
30
0
11
-76.550447189653838
21
-58.7091826563979
31
0
0
LINE
5
128
100
AcDbEntity
8
0
100
AcDbLine
10
-78.733107276466896
20
-57.687343557674481
30
0
11
-79.556349299094947
21
-58.945863582642772
31
0
0
LINE
5
129
100
AcDbEntity
8
0
100
AcDbLine
10
-81.515069065921054
20
-58.127884160825438
30
0
11
-80.34635274313267
21
-59.071017636772524
31
0
0
LINE
5
130
100
AcDbEntity
8
0
100
AcDbLine
10
-82.661991515126346
20
-58.403202336044444
30
0
11
-83.278222155515692
21
-59.775011316519581
31
0
0
LINE
5
131
100
AcDbEntity
8
0
100
AcDbLine
10
-85.340787004968973
20
-59.273513857631002
30
0
11
-84.038920938716331
21
-60.022208282709713
31
0
0
LINE
5
132
100
AcDbEntity
8
0
100
AcDbLine
10
-86.430519684159606
20
-59.724860609032795
30
0
11
-86.824565298791626
21
-61.176180055142495
31
0
0
LINE
5
133
100
AcDbEntity
8
0
100
AcDbLine
10
-88.940188039018267
20
-61.003513090995185
30
0
11
-87.537228492498286
21
-61.539333123685736
31
0
0
LINE
5
134
100
AcDbEntity
8
0
100
AcDbLine
10
-89.945898113017137
20
-61.619774763626239
30
0
11
-90.108055991097174
21
-63.114868373954202
31
0
0
LINE
5
135
100
AcDbEntity
8
0
100
AcDbLine
10
-92.224642968883472
20
-63.275283538254229
30
0
11
-90.755135462287271
21
-63.585035511067062
31
0
0
LINE
5
136
100
AcDbEntity
8
0
100
AcDbLine
10
-93.121566517908406
20
-64.041285724479224
30
0
11
-93.047843794306971
21
-65.543339332407939
31
0
0
LINE
5
137
100
AcDbEntity
8
0
100
AcDbLine
10
-95.11327761371038
20
-66.032886671422858
30
0
11
-93.613406298866153
21
-66.10894346277945
31
0
0
LINE
5
138
100
AcDbEntity
8
0
100
AcDbLine
10
-95.879329403265785
20
-66.92976785520132
30
0
11
-95.571541376109664
21
-68.401795915873493
31
0
0
LINE
5
139
100
AcDbEntity
8
0
100
AcDbLine
10
-97.534964201714615
20
-69.20842114940227
30
0
11
-96.041660888181326
21
-69.048909988681402
31
0
0
LINE
5
140
100
AcDbEntity
8
0
100
AcDbLine
10
-98.151281494361484
20
-70.214097139411649
30
0
11
-97.617006926369143
21
-71.61985343659245
31
0
0
LINE
5
141
100
AcDbEntity
8
0
100
AcDbLine
10
-99.430072771982495
20
-72.723694774349951
30
0
11
-97.980107543328899
21
-72.332543355715785
31
0
0
LINE
5
142
100
AcDbEntity
8
0
100
AcDbLine
10
-99.881479790536048
20
-73.813402490068952
30
0
11
-99.133874294727093
21
-75.118272638284139
31
0
0
LINE
5
143
100
AcDbEntity
8
0
100
AcDbLine
10
-100.75193946200928
20
-76.492149843095405
30
0
11
-99.381015274323516
21
-75.878989612631813
31
0
0
LINE
5
144
100
AcDbEntity
8
0
100
AcDbLine
10
-101.02732106753869
20
-77.639057064030439
30
0
11
-100.08479317238034
21
-78.810910829615239
31
0
0
LINE
5
145
100
AcDbEntity
8
0
100
AcDbLine
10
-101.46801552686244
20
-80.420994485060774
30
0
11
-100.20988908348187
21
-79.600923482603918
31
0
0
LINE
5
146
100
AcDbEntity
8
0
100
AcDbLine
10
-101.5605909103005
20
-81.596860549065596
30
0
11
-100.4463487806423
21
-82.60684300315161
31
0
0
LINE
5
147
100
AcDbEntity
8
0
100
AcDbLine
10
-101.56066879730518
20
-84.413487506073068
30
0
11
-100.44631934674811
21
-83.406698601363047
31
0
0
LINE
5
148
100
AcDbEntity
8
0
100
AcDbLine
10
-101.4681584454715
20
-85.589358688176148
30
0
11
-100.20963842050321
21
-86.412600710804185
31
0
0
LINE
5
149
100
AcDbEntity
8
0
100
AcDbLine
10
-101.02761784232057
20
-88.371320477630292
30
0
11
-100.08448436637349
21
-87.202604154841907
31
0
0
LINE
5
150
100
AcDbEntity
8
0
100
AcDbLine
10
-100.75229966710157
20
-89.518242926835526
30
0
11
-99.38049068662643
21
-90.134473567224887
31
0
0
LINE
5
151
100
AcDbEntity
8
0
100
AcDbLine
10
-99.881988145514981
20
-92.197038416678154
30
0
11
-99.133293720436285
21
-90.895172350425526
31
0
0
LINE
5
152
100
AcDbEntity
8
0
100
AcDbLine
10
-99.430641394113209
20
-93.286771095868787
30
0
11
-97.979321948003516
21
-93.680816710500835
31
0
0
LINE
5
153
100
AcDbEntity
8
0
100
AcDbLine
10
-98.151988912150827
20
-95.796439450727462
30
0
11
-97.616168879460261
21
-94.393479904207496
31
0
0
LINE
5
154
100
AcDbEntity
8
0
100
AcDbLine
10
-97.535727239519758
20
-96.80214952472636
30
0
11
-96.040633629191774
21
-96.964307402806398
31
0
0
LINE
5
155
100
AcDbEntity
8
0
100
AcDbLine
10
-95.880218464891769
20
-99.080894380592696
30
0
11
-95.570466492078921
21
-97.61138687399648
31
0
0
LINE
5
156
100
AcDbEntity
8
0
100
AcDbLine
10
-95.114216278666788
20
-99.977817929617601
30
0
11
-93.612162670738073
21
-99.904095206016194
31
0
0
LINE
5
157
100
AcDbEntity
8
0
100
AcDbLine
10
-93.122615331723168
20
-101.96952902541959
30
0
11
-93.046558540366561
21
-100.46965771057536
31
0
0
LINE
5
158
100
AcDbEntity
8
0
100
AcDbLine
10
-92.225734147944678
20
-102.73558081497498
30
0
11
-90.753706087272519
21
-102.42779278781884
31
0
0
LINE
5
159
100
AcDbEntity
8
0
100
AcDbLine
10
-89.947080853743728
20
-104.39121561342382
30
0
11
-90.106592014464596
21
-102.89791229989052
31
0
0
LINE
5
160
100
AcDbEntity
8
0
100
AcDbLine
10
-88.941404863734363
20
-105.00753290607071
30
0
11
-87.535648566553562
21
-104.47325833807837
31
0
0
LINE
5
161
100
AcDbEntity
8
0
100
AcDbLine
10
-86.43180722879606
20
-106.28632418369172
30
0
11
-86.822958647430227
21
-104.83635895503811
31
0
0
LINE
5
162
100
AcDbEntity
8
0
100
AcDbLine
10
-85.342099513077045
20
-106.73773120224526
30
0
11
-84.037229364861844
21
-105.9901257064363
31
0
0
LINE
5
163
100
AcDbEntity
8
0
100
AcDbLine
10
-82.663352160050593
20
-107.6081908737185
30
0
11
-83.276512390514199
21
-106.23726668603271
31
0
0
LINE
5
164
100
AcDbEntity
8
0
100
AcDbLine
10
-81.516444939115559
20
-107.88357247924793
30
0
11
-80.344591173530773
21
-106.94104458408957
31
0
0
LINE
5
165
100
AcDbEntity
8
0
100
AcDbLine
10
-78.734507518085223
20
-108.3242669385717
30
0
11
-79.55457852054208
21
-107.06614049519111
31
0
0
LINE
5
166
100
AcDbEntity
8
0
100
AcDbLine
10
-77.558641454080416
20
-108.41684232200973
30
0
11
-76.548658999994387
21
-107.30260019235149
31
0
0
LINE
5
167
100
AcDbEntity
8
0
100
AcDbLine
10
-74.742014497072944
20
-108.41692020901441
30
0
11
-75.748803401782951
21
-107.30257075845731
31
0
0
LINE
5
168
100
AcDbEntity
8
0
100
AcDbLine
10
-73.566143314969864
20
-108.32440985718073
30
0
11
-72.742901292341813
21
-107.06588983221243
31
0
0
LINE
5
169
100
AcDbEntity
8
0
100
AcDbLine
10
-70.784181525515706
20
-107.88386925402978
30
0
11
-71.95289784830409
21
-106.94073577808268
31
0
0
LINE
5
170
100
AcDbEntity
8
0
100
AcDbLine
10
-69.637259076310443
20
-107.60855107881078
30
0
11
-69.021028435921096
21
-106.23674209833565
31
0
0
LINE
5
171
100
AcDbEntity
8
0
100
AcDbLine
10
-66.958463586467815
20
-106.73823955722423
30
0
11
-68.260329652720458
21
-105.98954513214551
31
0
0
LINE
5
172
100
AcDbEntity
8
0
100
AcDbLine
10
-65.868730907277211
20
-106.28689280582243
30
0
11
-65.474685292645191
21
-104.83557335971273
31
0
0
LINE
5
173
100
AcDbEntity
8
0
100
AcDbLine
10
-63.359062552418557
20
-105.00824032386005
30
0
11
-64.76202209893853
21
-104.47242029116948
31
0
0
LINE
5
174
100
AcDbEntity
8
0
100
AcDbLine
10
-62.353352478419666
20
-104.39197865122895
30
0
11
-62.1911946003396
21
-102.89688504090101
31
0
0
LINE
5
175
100
AcDbEntity
8
0
100
AcDbLine
10
-60.07460762255333
20
-102.73646987660099
30
0
11
-61.544115129149532
21
-102.42671790378814
31
0
0
LINE
5
176
100
AcDbEntity
8
0
100
AcDbLine
10
-59.177684073528383
20
-101.97046769037601
30
0
11
-59.251406797129803
21
-100.4684140824473
31
0
0
LINE
5
177
100
AcDbEntity
8
0
100
AcDbLine
10
-57.185972977726394
20
-99.978866743432377
30
0
11
-58.685844292570636
21
-99.902809952075771
31
0
0
LINE
5
178
100
AcDbEntity
8
0
100
AcDbLine
10
-56.419921188171017
20
-99.081985559653901
30
0
11
-56.727709215327152
21
-97.609957498981728
31
0
0
LINE
5
179
100
AcDbEntity
8
0
100
AcDbLine
10
-54.764286389722173
20
-96.803332265452951
30
0
11
-56.257589703255491
21
-96.962843426173819
31
0
0
LINE
5
180
100
AcDbEntity
8
0
100
AcDbLine
10
-54.147969097075325
20
-95.7976562754436
30
0
11
-54.682243665067659
21
-94.391899978262757
31
0
0
LINE
5
181
100
AcDbEntity
8
0
100
AcDbLine
10
-52.869177819454301
20
-93.288058640505298
30
0
11
-54.319143048107904
21
-93.67921005913945
31
0
0
LINE
5
182
100
AcDbEntity
8
0
100
AcDbLine
10
-52.417770800900747
20
-92.198350924786297
30
0
11
-53.165376296709695
21
-90.893480776571096
31
0
0
LINE
5
183
100
AcDbEntity
8
0
100
AcDbLine
10
-51.547311129427513
20
-89.519603571759845
30
0
11
-52.918235317113286
21
-90.132763802223423
31
0
0
CIRCLE
5
184
100
AcDbEntity
8
0
100
AcDbCircle
10
-76.149625295718394
20
-83.005876707427603
30
0
40
8.8499999999999943
210
0
220
0
230
1
0
CIRCLE
5
185
100
AcDbEntity
8
0
100
AcDbCircle
10
-76.149625295718394
20
-83.005876707427603
30
0
40
16.800000000000004
210
0
220
0
230
1
0
CIRCLE
5
186
100
AcDbEntity
8
0
100
AcDbCircle
10
-76.149625295718394
20
-83.005876707427603
30
0
40
17.350000000000009
210
0
220
0
230
1
0
CIRCLE
5
187
100
AcDbEntity
8
0
100
AcDbCircle
10
-76.149625295718394
20
-83.005876707427603
30
0
40
18.149999999999991
210
0
220
0
230
1
0
LINE
5
188
100
AcDbEntity
8
0
100
AcDbLine
10
-86.002110171663702
20
-98.248942073989184
30
0
11
-86.100442432110285
21
-97.218678623942509
31
0
0
LINE
5
189
100
AcDbEntity
8
0
100
AcDbLine
10
-87.603042512009154
20
-97.085711012900589
30
0
11
-86.593342498891118
21
-96.860524699352709
31
0
0
LINE
5
190
100
AcDbEntity
8
0
100
AcDbLine
10
-83.496268957388153
20
-99.602542845795483
30
0
11
-83.754559296194188
21
-98.600346203002232
31
0
0
LINE
5
191
100
AcDbEntity
8
0
100
AcDbLine
10
-85.259460592788642
20
-98.704074083567704
30
0
11
-84.297418562827431
21
-98.323708305811635
31
0
0
LINE
5
192
100
AcDbEntity
8
0
100
AcDbLine
10
-80.809528994049913
20
-100.5474786160982
30
0
11
-81.221417445857469
21
-99.598026188003928
31
0
0
LINE
5
193
100
AcDbEntity
8
0
100
AcDbLine
10
-82.691564294744282
20
-99.935895435504165
30
0
11
-81.800868915551987
21
-99.409716061349911
31
0
0
LINE
5
194
100
AcDbEntity
8
0
100
AcDbLine
10
-78.008046736325014
20
-101.06048193017045
30
0
11
-78.563391240471191
21
-100.18715238660673
31
0
0
LINE
5
195
100
AcDbEntity
8
0
100
AcDbLine
10
-79.962583747093149
20
-100.75084353884461
30
0
11
-79.165166894953984
21
-100.09180685077303
31
0
0
LINE
5
196
100
AcDbEntity
8
0
100
AcDbLine
10
-75.160803974985242
20
-101.12892094385941
30
0
11
-75.845930106695221
21
-100.35321855660339
31
0
0
LINE
5
197
100
AcDbEntity
8
0
100
AcDbLine
10
-77.139715507885569
20
-101.12885166662707
30
0
11
-76.45521223217402
21
-100.35318533511588
31
0
0
LINE
5
198
100
AcDbEntity
8
0
100
AcDbLine
10
-72.337909276271716
20
-100.75111046151193
30
0
11
-73.135946956379541
21
-100.09213559774648
31
0
0
LINE
5
199
100
AcDbEntity
8
0
100
AcDbLine
10
-74.292467961733422
20
-101.06061200420848
30
0
11
-73.737733004833601
21
-100.18741550862845
31
0
0
LINE
5
200
100
AcDbEntity
8
0
100
AcDbLine
10
-69.608871676317165
20
-99.936353431084569
30
0
11
-70.50017056860338
21
-99.410332238967754
31
0
0
LINE
5
201
100
AcDbEntity
8
0
100
AcDbLine
10
-71.490949792695787
20
-100.5478048385521
30
0
11
-71.079642570306362
21
-99.598579174597447
31
0
0
LINE
5
202
100
AcDbEntity
8
0
100
AcDbLine
10
-67.040889137988998
20
-98.704711874689963
30
0
11
-68.003502505674064
21
-98.324596741735988
31
0
0
LINE
5
203
100
AcDbEntity
8
0
100
AcDbLine
10
-68.804143675800148
20
-99.603057183985754
30
0
11
-68.546391936786748
21
-98.601175437802397
31
0
0
LINE
5
204
100
AcDbEntity
8
0
100
AcDbLine
10
-64.697193914026272
20
-97.086512895030552
30
0
11
-65.707419021267199
21
-96.861663517342521
31
0
0
LINE
5
205
100
AcDbEntity
8
0
100
AcDbLine
10
-66.298207694642727
20
-98.24963186320258
30
0
11
-66.200358142248831
21
-97.21976368843643
31
0
0
LINE
5
206
100
AcDbEntity
8
0
100
AcDbLine
10
-62.635495559121438
20
-95.12160192148005
30
0
11
-63.668457311033023
21
-95.057554836968961
31
0
0
LINE
5
207
100
AcDbEntity
8
0
100
AcDbLine
10
-64.034846309804294
20
-96.520854699361379
30
0
11
-64.099308324753892
21
-95.48835886841168
31
0
0
LINE
5
208
100
AcDbEntity
8
0
100
AcDbLine
10
-60.90655992915682
20
-92.858361583372911
30
0
11
-61.936823379203489
21
-92.956693843819508
31
0
0
LINE
5
209
100
AcDbEntity
8
0
100
AcDbLine
10
-62.069790990245423
20
-94.459293923718377
30
0
11
-62.294977303793289
21
-93.449593910600328
31
0
0
LINE
5
210
100
AcDbEntity
8
0
100
AcDbLine
10
-59.5529591573505
20
-90.352520369097391
30
0
11
-60.55515580014378
21
-90.610810707903397
31
0
0
LINE
5
211
100
AcDbEntity
8
0
100
AcDbLine
10
-60.451427919578279
20
-92.115712004497851
30
0
11
-60.831793697334348
21
-91.153669974536655
31
0
0
LINE
5
212
100
AcDbEntity
8
0
100
AcDbLine
10
-58.608023387047758
20
-87.665780405759136
30
0
11
-59.557475815142062
21
-88.077668857566664
31
0
0
LINE
5
213
100
AcDbEntity
8
0
100
AcDbLine
10
-59.21960656764179
20
-89.547815706453505
30
0
11
-59.745785941796058
21
-88.657120327261225
31
0
0
LINE
5
214
100
AcDbEntity
8
0
100
AcDbLine
10
-58.095020072975544
20
-84.864298148034237
30
0
11
-58.968349616539285
21
-85.419642652180414
31
0
0
LINE
5
215
100
AcDbEntity
8
0
100
AcDbLine
10
-58.404658464301406
20
-86.818835158802372
30
0
11
-59.063695152372979
21
-86.021418306663207
31
0
0
LINE
5
216
100
AcDbEntity
8
0
100
AcDbLine
10
-58.026581059286642
20
-82.017055386694466
30
0
11
-58.802283446542667
21
-82.702181518404444
31
0
0
LINE
5
217
100
AcDbEntity
8
0
100
AcDbLine
10
-58.026650336518983
20
-83.995966919594807
30
0
11
-58.802316668030144
21
-83.311463643883243
31
0
0
LINE
5
218
100
AcDbEntity
8
0
100
AcDbLine
10
-58.404391541634091
20
-79.19416068798094
30
0
11
-59.063366405399549
21
-79.992198368088751
31
0
0
LINE
5
219
100
AcDbEntity
8
0
100
AcDbLine
10
-58.094889998937518
20
-81.148719373442617
30
0
11
-58.96808649451755
21
-80.59398441654281
31
0
0
LINE
5
220
100
AcDbEntity
8
0
100
AcDbLine
10
-59.219148572061457
20
-76.465123088026402
30
0
11
-59.745169764178243
21
-77.356421980312604
31
0
0
LINE
5
221
100
AcDbEntity
8
0
100
AcDbLine
10
-58.607697164593908
20
-78.347201204405025
30
0
11
-59.556922828548565
21
-77.935893982015585
31
0
0
LINE
5
222
100
AcDbEntity
8
0
100
AcDbLine
10
-60.450790128456049
20
-73.897140549698221
30
0
11
-60.830905261410031
21
-74.859753917383287
31
0
0
LINE
5
223
100
AcDbEntity
8
0
100
AcDbLine
10
-59.552444819160272
20
-75.660395087509357
30
0
11
-60.554326565343644
21
-75.402643348495957
31
0
0
LINE
5
224
100
AcDbEntity
8
0
100
AcDbLine
10
-62.068989108115446
20
-71.553445325735495
30
0
11
-62.293838485803477
21
-72.563670432976409
31
0
0
LINE
5
225
100
AcDbEntity
8
0
100
AcDbLine
10
-60.905870139943445
20
-73.154459106351936
30
0
11
-61.935738314709582
21
-73.056609553958054
31
0
0
LINE
5
226
100
AcDbEntity
8
0
100
AcDbLine
10
-64.033900081665962
20
-69.491746970830675
30
0
11
-64.097947166177036
21
-70.524708722742261
31
0
0
LINE
5
227
100
AcDbEntity
8
0
100
AcDbLine
10
-62.634647303784625
20
-70.891097721513532
30
0
11
-63.667143134734317
21
-70.95555973646313
31
0
0
LINE
5
228
100
AcDbEntity
8
0
100
AcDbLine
10
-66.297140419773072
20
-67.762811340866051
30
0
11
-66.198808159326475
21
-68.793074790912726
31
0
0
LINE
5
229
100
AcDbEntity
8
0
100
AcDbLine
10
-64.696208079427606
20
-68.92604240195466
30
0
11
-65.705908092545656
21
-69.151228715502526
31
0
0
LINE
5
230
100
AcDbEntity
8
0
100
AcDbLine
10
-68.802981634048606
20
-66.409210569059738
30
0
11
-68.544691295242586
21
-67.411407211853003
31
0
0
LINE
5
231
100
AcDbEntity
8
0
100
AcDbLine
10
-67.039789998648132
20
-67.307679331287488
30
0
11
-68.001832028609343
21
-67.688045109043571
31
0
0
LINE
5
232
100
AcDbEntity
8
0
100
AcDbLine
10
-71.489721597386861
20
-65.464274798757003
30
0
11
-71.077833145579334
21
-66.413727226851321
31
0
0
LINE
5
233
100
AcDbEntity
8
0
100
AcDbLine
10
-69.607686296692478
20
-66.075857979351042
30
0
11
-70.498381675884758
21
-66.602037353505324
31
0
0
LINE
5
234
100
AcDbEntity
8
0
100
AcDbLine
10
-74.29120385511176
20
-64.951271484684725
30
0
11
-73.735859350965583
21
-65.824601028248466
31
0
0
LINE
5
235
100
AcDbEntity
8
0
100
AcDbLine
10
-72.336666844343625
20
-65.260909876010587
30
0
11
-73.134083696482776
21
-65.919946564082167
31
0
0
LINE
5
236
100
AcDbEntity
8
0
100
AcDbLine
10
-77.138446616451532
20
-64.882832470995822
30
0
11
-76.453320484741567
21
-65.658534858251855
31
0
0
LINE
5
237
100
AcDbEntity
8
0
100
AcDbLine
10
-75.159535083551219
20
-64.882901748228193
30
0
11
-75.844038359262768
21
-65.658568079739325
31
0
0
LINE
5
238
100
AcDbEntity
8
0
100
AcDbLine
10
-79.961341315165058
20
-65.260642953343293
30
0
11
-79.163303635057233
21
-65.919617817108758
31
0
0
LINE
5
239
100
AcDbEntity
8
0
100
AcDbLine
10
-78.006782629703366
20
-64.951141410646756
30
0
11
-78.561517586603188
21
-65.824337906226759
31
0
0
LINE
5
240
100
AcDbEntity
8
0
100
AcDbLine
10
-82.690378915119595
20
-66.075399983770652
30
0
11
-81.799080022833394
21
-66.601421175887452
31
0
0
LINE
5
241
100
AcDbEntity
8
0
100
AcDbLine
10
-80.808300798740973
20
-65.463948576303125
30
0
11
-81.219608021130398
21
-66.413174240257788
31
0
0
LINE
5
242
100
AcDbEntity
8
0
100
AcDbLine
10
-85.258361453447776
20
-67.307041540165244
30
0
11
-84.29574808576271
21
-67.687156673119233
31
0
0
LINE
5
243
100
AcDbEntity
8
0
100
AcDbLine
10
-83.49510691563664
20
-66.408696230869452
30
0
11
-83.752858654650026
21
-67.410577977052824
31
0
0
LINE
5
244
100
AcDbEntity
8
0
100
AcDbLine
10
-87.602056677410502
20
-68.925240519824683
30
0
11
-86.591831570169575
21
-69.150089897512714
31
0
0
LINE
5
245
100
AcDbEntity
8
0
100
AcDbLine
10
-86.001042896794075
20
-67.762121551652669
30
0
11
-86.098892449187971
21
-68.791989726418805
31
0
0
LINE
5
246
100
AcDbEntity
8
0
100
AcDbLine
10
-89.663755032315336
20
-70.890151493375186
30
0
11
-88.630793280403765
21
-70.95419857788626
31
0
0
LINE
5
247
100
AcDbEntity
8
0
100
AcDbLine
10
-88.264404281632466
20
-69.49089871549387
30
0
11
-88.199942266682868
21
-70.523394546443555
31
0
0
LINE
5
248
100
AcDbEntity
8
0
100
AcDbLine
10
-91.392690662279961
20
-73.15339183148231
30
0
11
-90.3624272122333
21
-73.055059571035713
31
0
0
LINE
5
249
100
AcDbEntity
8
0
100
AcDbLine
10
-90.229459601191365
20
-71.552459491136844
30
0
11
-90.004273287643485
21
-72.562159504254879
31
0
0
LINE
5
250
100
AcDbEntity
8
0
100
AcDbLine
10
-92.746291434086288
20
-75.659233045757816
30
0
11
-91.744094791293023
21
-75.40094270695181
31
0
0
LINE
5
251
100
AcDbEntity
8
0
100
AcDbLine
10
-91.847822671858495
20
-73.896041410357341
30
0
11
-91.467456894102412
21
-74.858083440318552
31
0
0
LINE
5
252
100
AcDbEntity
8
0
100
AcDbLine
10
-93.691227204389008
20
-78.34597300909607
30
0
11
-92.741774776294676
21
-77.934084557288543
31
0
0
LINE
5
253
100
AcDbEntity
8
0
100
AcDbLine
10
-93.07964402379497
20
-76.463937708401701
30
0
11
-92.553464649640702
21
-77.354633087593982
31
0
0
LINE
5
254
100
AcDbEntity
8
0
100
AcDbLine
10
-94.20423051846123
20
-81.147455266820998
30
0
11
-93.330900974897503
21
-80.592110762674821
31
0
0
LINE
5
255
100
AcDbEntity
8
0
100
AcDbLine
10
-93.894592127135382
20
-79.192918256052863
30
0
11
-93.235555439063802
21
-79.990335108192014
31
0
0
LINE
5
256
100
AcDbEntity
8
0
100
AcDbLine
10
-94.272669532150189
20
-83.994698028160741
30
0
11
-93.496967144894171
21
-83.309571896450777
31
0
0
LINE
5
257
100
AcDbEntity
8
0
100
AcDbLine
10
-94.272600254917847
20
-82.015786495260429
30
0
11
-93.496933923406672
21
-82.700289770971978
31
0
0
LINE
5
258
100
AcDbEntity
8
0
100
AcDbLine
10
-93.894859049802704
20
-86.817592726874281
30
0
11
-93.235884186037254
21
-86.019555046766456
31
0
0
LINE
5
259
100
AcDbEntity
8
0
100
AcDbLine
10
-94.204360592499256
20
-84.863034041412561
30
0
11
-93.331164096919238
21
-85.417768998312397
31
0
0
LINE
5
260
100
AcDbEntity
8
0
100
AcDbLine
10
-93.080102019375332
20
-89.546630326828819
30
0
11
-92.554080827258517
21
-88.655331434542603
31
0
0
LINE
5
261
100
AcDbEntity
8
0
100
AcDbLine
10
-93.691553426842859
20
-87.664552210450211
30
0
11
-92.742327762888209
21
-88.07585943283965
31
0
0
LINE
5
262
100
AcDbEntity
8
0
100
AcDbLine
10
-91.848460462980754
20
-92.114612865157
30
0
11
-91.468345330026779
21
-91.151999497471934
31
0
0
LINE
5
263
100
AcDbEntity
8
0
100
AcDbLine
10
-92.746805772276545
20
-90.351358327345849
30
0
11
-91.744924026093187
21
-90.60911006635925
31
0
0
LINE
5
264
100
AcDbEntity
8
0
100
AcDbLine
10
-90.230261483321343
20
-94.458308089119726
30
0
11
-90.005412105633326
21
-93.448082981878827
31
0
0
LINE
5
265
100
AcDbEntity
8
0
100
AcDbLine
10
-91.393380451493371
20
-92.85729430850327
30
0
11
-90.363512276727192
21
-92.955143860897181
31
0
0
LINE
5
266
100
AcDbEntity
8
0
100
AcDbLine
10
-88.26535050977084
20
-96.52000644402456
30
0
11
-88.201303425259738
21
-95.487044692113002
31
0
0
LINE
5
267
100
AcDbEntity
8
0
100
AcDbLine
10
-89.664603287652156
20
-95.120655693341689
30
0
11
-88.632107456702457
21
-95.056193678392091
31
0
0
LINE
5
268
100
AcDbEntity
8
0
100
AcDbLine
10
-101.02761784232057
20
-88.371320477630292
30
0
11
-93.894859049802704
21
-86.817592726874281
31
0
0
LINE
5
269
100
AcDbEntity
8
0
100
AcDbLine
10
-100.75229966710157
20
-89.518242926835526
30
0
11
-93.691553426842859
21
-87.664552210450211
31
0
0
LINE
5
270
100
AcDbEntity
8
0
100
AcDbLine
10
-99.38049068662643
20
-90.134473567224887
30
0
11
-92.742327762888209
21
-88.07585943283965
31
0
0
LINE
5
271
100
AcDbEntity
8
0
100
AcDbLine
10
-99.133293720436285
20
-90.895172350425526
30
0
11
-92.554080827258517
21
-88.655331434542603
31
0
0
LINE
5
272
100
AcDbEntity
8
0
100
AcDbLine
10
-99.430641394113209
20
-93.286771095868758
30
0
11
-92.746805772276502
21
-90.351358327345835
31
0
0
LINE
5
273
100
AcDbEntity
8
0
100
AcDbLine
10
-99.881988145514981
20
-92.197038416678168
30
0
11
-93.080102019375332
21
-89.546630326828819
31
0
0
LINE
5
274
100
AcDbEntity
8
0
100
AcDbLine
10
-97.979321948003502
20
-93.680816710500793
30
0
11
-91.744924026093159
21
-90.609110066359264
31
0
0
LINE
5
275
100
AcDbEntity
8
0
100
AcDbLine
10
-97.616168879460261
20
-94.393479904207453
30
0
11
-91.46834533002675
21
-91.15199949747192
31
0
0
LINE
5
276
100
AcDbEntity
8
0
100
AcDbLine
10
-97.535727239519758
20
-96.802149524726332
30
0
11
-91.393380451493329
21
-92.85729430850327
31
0
0
LINE
5
277
100
AcDbEntity
8
0
100
AcDbLine
10
-98.151988912150827
20
-95.796439450727462
30
0
11
-91.848460462980739
21
-92.114612865157
31
0
0
LINE
5
278
100
AcDbEntity
8
0
100
AcDbLine
10
-96.040633629191774
20
-96.964307402806384
30
0
11
-90.363512276727178
21
-92.955143860897195
31
0
0
LINE
5
279
100
AcDbEntity
8
0
100
AcDbLine
10
-95.570466492078907
20
-97.611386873996452
30
0
11
-90.005412105633297
21
-93.448082981878798
31
0
0
LINE
5
280
100
AcDbEntity
8
0
100
AcDbLine
10
-95.114216278666817
20
-99.977817929617586
30
0
11
-89.664603287652113
21
-95.120655693341675
31
0
0
LINE
5
281
100
AcDbEntity
8
0
100
AcDbLine
10
-95.880218464891769
20
-99.080894380592667
30
0
11
-90.230261483321328
21
-94.458308089119711
31
0
0
LINE
5
282
100
AcDbEntity
8
0
100
AcDbLine
10
-93.612162670738073
20
-99.90409520601618
30
0
11
-88.632107456702443
21
-95.056193678392091
31
0
0
LINE
5
283
100
AcDbEntity
8
0
100
AcDbLine
10
-93.046558540366561
20
-100.46965771057535
30
0
11
-88.201303425259709
21
-95.48704469211296
31
0
0
LINE
5
284
100
AcDbEntity
8
0
100
AcDbLine
10
-92.225734147944706
20
-102.73558081497498
30
0
11
-87.603042512009139
21
-97.085711012900589
31
0
0
LINE
5
285
100
AcDbEntity
8
0
100
AcDbLine
10
-93.122615331723154
20
-101.9695290254196
30
0
11
-88.265350509770826
21
-96.52000644402456
31
0
0
LINE
5
286
100
AcDbEntity
8
0
100
AcDbLine
10
-90.753706087272519
20
-102.42779278781887
30
0
11
-86.593342498891104
21
-96.860524699352737
31
0
0
LINE
5
287
100
AcDbEntity
8
0
100
AcDbLine
10
-90.106592014464596
20
-102.89791229989052
30
0
11
-86.10044243211027
21
-97.218678623942509
31
0
0
LINE
5
288
100
AcDbEntity
8
0
100
AcDbLine
10
-88.941404863734377
20
-105.00753290607068
30
0
11
-85.259460592788628
21
-98.704074083567704
31
0
0
LINE
5
289
100
AcDbEntity
8
0
100
AcDbLine
10
-89.947080853743728
20
-104.39121561342382
30
0
11
-86.002110171663702
21
-98.248942073989184
31
0
0
LINE
5
290
100
AcDbEntity
8
0
100
AcDbLine
10
-87.535648566553562
20
-104.47325833807835
30
0
11
-84.297418562827431
21
-98.323708305811664
31
0
0
LINE
5
291
100
AcDbEntity
8
0
100
AcDbLine
10
-86.822958647430227
20
-104.83635895503809
30
0
11
-83.754559296194174
21
-98.600346203002232
31
0
0
LINE
5
292
100
AcDbEntity
8
0
100
AcDbLine
10
-85.342099513077088
20
-106.73773120224524
30
0
11
-82.691564294744282
21
-99.935895435504165
31
0
0
LINE
5
293
100
AcDbEntity
8
0
100
AcDbLine
10
-86.431807228796046
20
-106.2863241836917
30
0
11
-83.496268957388153
21
-99.602542845795497
31
0
0
LINE
5
294
100
AcDbEntity
8
0
100
AcDbLine
10
-84.037229364861872
20
-105.9901257064363
30
0
11
-81.800868915551987
21
-99.409716061349911
31
0
0
LINE
5
295
100
AcDbEntity
8
0
100
AcDbLine
10
-83.276512390514199
20
-106.2372666860327
30
0
11
-81.22141744585744
21
-99.598026188003885
31
0
0
LINE
5
296
100
AcDbEntity
8
0
100
AcDbLine
10
-81.516444939115601
20
-107.88357247924793
30
0
11
-79.962583747093134
21
-100.75084353884461
31
0
0
LINE
5
297
100
AcDbEntity
8
0
100
AcDbLine
10
-82.663352160050607
20
-107.6081908737185
30
0
11
-80.809528994049913
21
-100.5474786160982
31
0
0
LINE
5
298
100
AcDbEntity
8
0
100
AcDbLine
10
-80.344591173530802
20
-106.94104458408957
30
0
11
-79.165166894953984
21
-100.09180685077303
31
0
0
LINE
5
299
100
AcDbEntity
8
0
100
AcDbLine
10
-79.554578520542094
20
-107.06614049519111
30
0
11
-78.563391240471191
21
-100.18715238660673
31
0
0
LINE
5
300
100
AcDbEntity
8
0
100
AcDbLine
10
-77.558641454080458
20
-108.41684232200974
30
0
11
-77.139715507885583
21
-101.12885166662704
31
0
0
LINE
5
301
100
AcDbEntity
8
0
100
AcDbLine
10
-78.734507518085238
20
-108.3242669385717
30
0
11
-78.008046736325014
21
-101.06048193017045
31
0
0
LINE
5
302
100
AcDbEntity
8
0
100
AcDbLine
10
-76.548658999994416
20
-107.30260019235152
30
0
11
-76.45521223217402
21
-100.35318533511587
31
0
0
LINE
5
303
100
AcDbEntity
8
0
100
AcDbLine
10
-75.748803401782965
20
-107.30257075845734
30
0
11
-75.845930106695221
21
-100.35321855660334
31
0
0
LINE
5
304
100
AcDbEntity
8
0
100
AcDbLine
10
-73.566143314969878
20
-108.32440985718074
30
0
11
-74.292467961733422
21
-101.06061200420848
31
0
0
LINE
5
305
100
AcDbEntity
8
0
100
AcDbLine
10
-74.742014497072944
20
-108.41692020901441
30
0
11
-75.160803974985228
21
-101.1289209438594
31
0
0
LINE
5
306
100
AcDbEntity
8
0
100
AcDbLine
10
-72.742901292341813
20
-107.06588983221245
30
0
11
-73.737733004833586
21
-100.18741550862848
31
0
0
LINE
5
307
100
AcDbEntity
8
0
100
AcDbLine
10
-71.95289784830409
20
-106.9407357780827
30
0
11
-73.135946956379556
21
-100.09213559774643
31
0
0
LINE
5
308
100
AcDbEntity
8
0
100
AcDbLine
10
-69.637259076310471
20
-107.60855107881079
30
0
11
-71.490949792695787
21
-100.54780483855208
31
0
0
LINE
5
309
100
AcDbEntity
8
0
100
AcDbLine
10
-70.784181525515706
20
-107.88386925402978
30
0
11
-72.337909276271716
21
-100.75111046151193
31
0
0
LINE
5
310
100
AcDbEntity
8
0
100
AcDbLine
10
-69.02102843592111
20
-106.23674209833565
30
0
11
-71.079642570306362
21
-99.598579174597432
31
0
0
LINE
5
311
100
AcDbEntity
8
0
100
AcDbLine
10
-68.260329652720472
20
-105.98954513214551
30
0
11
-70.500170568603394
21
-99.41033223896774
31
0
0
LINE
5
312
100
AcDbEntity
8
0
100
AcDbLine
10
-65.868730907277239
20
-106.28689280582245
30
0
11
-68.804143675800162
21
-99.60305718398574
31
0
0
LINE
5
313
100
AcDbEntity
8
0
100
AcDbLine
10
-66.958463586467829
20
-106.73823955722423
30
0
11
-69.608871676317179
21
-99.936353431084541
31
0
0
LINE
5
314
100
AcDbEntity
8
0
100
AcDbLine
10
-65.474685292645191
20
-104.83557335971273
30
0
11
-68.546391936786733
21
-98.601175437802368
31
0
0
LINE
5
315
100
AcDbEntity
8
0
100
AcDbLine
10
-64.76202209893853
20
-104.4724202911695
30
0
11
-68.003502505674078
21
-98.324596741735974
31
0
0
LINE
5
316
100
AcDbEntity
8
0
100
AcDbLine
10
-62.353352478419652
20
-104.391978651229
30
0
11
-66.298207694642713
21
-98.249631863202552
31
0
0
LINE
5
317
100
AcDbEntity
8
0
100
AcDbLine
10
-63.359062552418521
20
-105.00824032386005
30
0
11
-67.040889137988984
21
-98.704711874689949
31
0
0
LINE
5
318
100
AcDbEntity
8
0
100
AcDbLine
10
-62.1911946003396
20
-102.89688504090101
30
0
11
-66.200358142248788
21
-97.219763688436416
31
0
0
LINE
5
319
100
AcDbEntity
8
0
100
AcDbLine
10
-61.54411512914951
20
-102.42671790378814
30
0
11
-65.707419021267157
21
-96.861663517342507
31
0
0
LINE
5
320
100
AcDbEntity
8
0
100
AcDbLine
10
-59.177684073528418
20
-101.97046769037605
30
0
11
-64.034846309804323
21
-96.520854699361365
31
0
0
LINE
5
321
100
AcDbEntity
8
0
100
AcDbLine
10
-60.07460762255333
20
-102.73646987660099
30
0
11
-64.697193914026286
21
-97.086512895030552
31
0
0
LINE
5
322
100
AcDbEntity
8
0
100
AcDbLine
10
-59.251406797129818
20
-100.46841408244731
30
0
11
-64.099308324753906
21
-95.48835886841168
31
0
0
LINE
5
323
100
AcDbEntity
8
0
100
AcDbLine
10
-58.685844292570657
20
-99.902809952075785
30
0
11
-63.668457311033038
21
-95.057554836968947
31
0
0
LINE
5
324
100
AcDbEntity
8
0
100
AcDbLine
10
-56.419921188171074
20
-99.081985559653916
30
0
11
-62.069790990245451
21
-94.459293923718363
31
0
0
LINE
5
325
100
AcDbEntity
8
0
100
AcDbLine
10
-57.185972977726429
20
-99.978866743432377
30
0
11
-62.63549555912148
21
-95.12160192148005
31
0
0
LINE
5
326
100
AcDbEntity
8
0
100
AcDbLine
10
-56.727709215327167
20
-97.609957498981743
30
0
11
-62.294977303793324
21
-93.449593910600314
31
0
0
LINE
5
327
100
AcDbEntity
8
0
100
AcDbLine
10
-56.257589703255526
20
-96.962843426173819
30
0
11
-61.936823379203538
21
-92.956693843819494
31
0
0
LINE
5
328
100
AcDbEntity
8
0
100
AcDbLine
10
-54.147969097075332
20
-95.7976562754436
30
0
11
-60.451427919578293
21
-92.115712004497823
31
0
0
LINE
5
329
100
AcDbEntity
8
0
100
AcDbLine
10
-54.764286389722194
20
-96.803332265452937
30
0
11
-60.906559929156842
21
-92.858361583372897
31
0
0
LINE
5
330
100
AcDbEntity
8
0
100
AcDbLine
10
-54.682243665067674
20
-94.391899978262757
30
0
11
-60.831793697334362
21
-91.153669974536641
31
0
0
LINE
5
331
100
AcDbEntity
8
0
100
AcDbLine
10
-54.319143048107925
20
-93.679210059139436
30
0
11
-60.555155800143794
21
-90.610810707903383
31
0
0
LINE
5
332
100
AcDbEntity
8
0
100
AcDbLine
10
-52.417770800900776
20
-92.198350924786325
30
0
11
-59.219606567641847
21
-89.547815706453505
31
0
0
LINE
5
333
100
AcDbEntity
8
0
100
AcDbLine
10
-52.869177819454301
20
-93.288058640505255
30
0
11
-59.552959157350514
21
-90.352520369097391
31
0
0
LINE
5
334
100
AcDbEntity
8
0
100
AcDbLine
10
-53.165376296709717
20
-90.893480776571096
30
0
11
-59.745785941796115
21
-88.657120327261225
31
0
0
LINE
5
335
100
AcDbEntity
8
0
100
AcDbLine
10
-52.9182353171133
20
-90.132763802223437
30
0
11
-59.557475815142134
21
-88.077668857566664
31
0
0
LINE
5
336
100
AcDbEntity
8
0
100
AcDbLine
10
-51.271929523898109
20
-88.37269635082481
30
0
11
-58.40465846430142
21
-86.818835158802358
31
0
0
LINE
5
337
100
AcDbEntity
8
0
100
AcDbLine
10
-51.54731112942752
20
-89.519603571759802
30
0
11
-58.608023387047808
21
-87.665780405759108
31
0
0
LINE
5
338
100
AcDbEntity
8
0
100
AcDbLine
10
-52.214457419056473
20
-87.200842585239997
30
0
11
-59.063695152373
21
-86.021418306663193
31
0
0
LINE
5
339
100
AcDbEntity
8
0
100
AcDbLine
10
-52.089361507954912
20
-86.410829932251289
30
0
11
-58.9683496165393
21
-85.419642652180414
31
0
0
LINE
5
340
100
AcDbEntity
8
0
100
AcDbLine
10
-50.738659681136262
20
-84.414892865789653
30
0
11
-58.026650336518969
21
-83.995966919594792
31
0
0
LINE
5
341
100
AcDbEntity
8
0
100
AcDbLine
10
-50.831235064574329
20
-85.590758929794447
30
0
11
-58.095020072975565
21
-84.864298148034223
31
0
0
LINE
5
342
100
AcDbEntity
8
0
100
AcDbLine
10
-51.852901810794506
20
-83.404910411703639
30
0
11
-58.80231666803013
21
-83.311463643883229
31
0
0
LINE
5
343
100
AcDbEntity
8
0
100
AcDbLine
10
-51.852931244688691
20
-82.60505481349216
30
0
11
-58.802283446542667
21
-82.702181518404416
31
0
0
LINE
5
344
100
AcDbEntity
8
0
100
AcDbLine
10
-50.831092145965272
20
-80.42239472667913
30
0
11
-58.094889998937532
21
-81.148719373442646
31
0
0
LINE
5
345
100
AcDbEntity
8
0
100
AcDbLine
10
-50.738581794131591
20
-81.598265908782182
30
0
11
-58.026581059286606
21
-82.017055386694452
31
0
0
LINE
5
346
100
AcDbEntity
8
0
100
AcDbLine
10
-52.08961217093357
20
-79.59915270405105
30
0
11
-58.968086494517529
21
-80.59398441654281
31
0
0
LINE
5
347
100
AcDbEntity
8
0
100
AcDbLine
10
-52.2147662250633
20
-78.809149260013328
30
0
11
-59.063366405399563
21
-79.992198368088779
31
0
0
LINE
5
348
100
AcDbEntity
8
0
100
AcDbLine
10
-51.546950924335192
20
-76.493510488019723
30
0
11
-58.607697164593908
21
-78.347201204405025
31
0
0
LINE
5
349
100
AcDbEntity
8
0
100
AcDbLine
10
-51.271632749116201
20
-77.640432937224944
30
0
11
-58.404391541634055
21
-79.194160687980968
31
0
0
LINE
5
350
100
AcDbEntity
8
0
100
AcDbLine
10
-52.918759904810329
20
-75.877279847630348
30
0
11
-59.556922828548551
21
-77.9358939820156
31
0
0
LINE
5
351
100
AcDbEntity
8
0
100
AcDbLine
10
-53.165956871000475
20
-75.11658106442971
30
0
11
-59.745169764178243
21
-77.356421980312632
31
0
0
LINE
5
352
100
AcDbEntity
8
0
100
AcDbLine
10
-52.868609197323551
20
-72.724982318986463
30
0
11
-59.552444819160257
21
-75.660395087509386
31
0
0
LINE
5
353
100
AcDbEntity
8
0
100
AcDbLine
10
-52.417262445921793
20
-73.814714998177053
30
0
11
-59.219148572061435
21
-76.465123088026402
31
0
0
LINE
5
354
100
AcDbEntity
8
0
100
AcDbLine
10
-54.319928643433272
20
-72.330936704354428
30
0
11
-60.554326565343608
21
-75.402643348495957
31
0
0
LINE
5
355
100
AcDbEntity
8
0
100
AcDbLine
10
-54.683081711976499
20
-71.618273510647739
30
0
11
-60.830905261410031
21
-74.859753917383301
31
0
0
LINE
5
356
100
AcDbEntity
8
0
100
AcDbLine
10
-54.763523351916994
20
-69.209603890128903
30
0
11
-60.905870139943438
21
-73.154459106351936
31
0
0
LINE
5
357
100
AcDbEntity
8
0
100
AcDbLine
10
-54.147261679285947
20
-70.215313964127759
30
0
11
-60.450790128456042
21
-73.897140549698221
31
0
0
LINE
5
358
100
AcDbEntity
8
0
100
AcDbLine
10
-56.258616962244972
20
-69.047446012048852
30
0
11
-61.935738314709582
21
-73.056609553958054
31
0
0
LINE
5
359
100
AcDbEntity
8
0
100
AcDbLine
10
-56.728784099357838
20
-68.400366540858769
30
0
11
-62.293838485803491
21
-72.563670432976409
31
0
0
LINE
5
360
100
AcDbEntity
8
0
100
AcDbLine
10
-57.185034312769943
20
-66.03393548523762
30
0
11
-62.634647303784632
21
-70.891097721513532
31
0
0
LINE
5
361
100
AcDbEntity
8
0
100
AcDbLine
10
-56.419032126545019
20
-66.930859034262525
30
0
11
-62.068989108115431
21
-71.553445325735481
31
0
0
LINE
5
362
100
AcDbEntity
8
0
100
AcDbLine
10
-58.68708792069868
20
-66.107658208839013
30
0
11
-63.667143134734317
21
-70.955559736463115
31
0
0
LINE
5
363
100
AcDbEntity
8
0
100
AcDbLine
10
-59.252692051070198
20
-65.542095704279859
30
0
11
-64.09794716617705
21
-70.524708722742247
31
0
0
LINE
5
364
100
AcDbEntity
8
0
100
AcDbLine
10
-60.073516443492068
20
-63.276172599880255
30
0
11
-64.696208079427635
21
-68.92604240195466
31
0
0
LINE
5
365
100
AcDbEntity
8
0
100
AcDbLine
10
-59.176635259713628
20
-64.042224389435631
30
0
11
-64.033900081665948
21
-69.491746970830661
31
0
0
LINE
5
366
100
AcDbEntity
8
0
100
AcDbLine
10
-61.545544504164262
20
-63.583960627036369
30
0
11
-65.70590809254567
21
-69.151228715502512
31
0
0
LINE
5
367
100
AcDbEntity
8
0
100
AcDbLine
10
-62.192658576972164
20
-63.113841114964693
30
0
11
-66.198808159326518
21
-68.793074790912726
31
0
0
LINE
5
368
100
AcDbEntity
8
0
100
AcDbLine
10
-63.357845727702404
20
-61.00422050878457
30
0
11
-67.03978999864816
21
-67.307679331287531
31
0
0
LINE
5
369
100
AcDbEntity
8
0
100
AcDbLine
10
-62.352169737693046
20
-61.620537801431396
30
0
11
-66.2971404197731
21
-67.762811340866051
31
0
0
LINE
5
370
100
AcDbEntity
8
0
100
AcDbLine
10
-64.763602024883227
20
-61.538495076776876
30
0
11
-68.001832028609357
21
-67.6880451090436
31
0
0
LINE
5
371
100
AcDbEntity
8
0
100
AcDbLine
10
-65.476291944006547
20
-61.175394459817142
30
0
11
-68.5446912952426
21
-67.411407211853017
31
0
0
LINE
5
372
100
AcDbEntity
8
0
100
AcDbLine
10
-66.957151078359686
20
-59.274022212609978
30
0
11
-69.607686296692492
21
-66.075857979351042
31
0
0
LINE
5
373
100
AcDbEntity
8
0
100
AcDbLine
10
-65.867443362640728
20
-59.725429231163517
30
0
11
-68.802981634048606
21
-66.409210569059738
31
0
0
LINE
5
374
100
AcDbEntity
8
0
100
AcDbLine
10
-68.262021226574902
20
-60.021627708418919
30
0
11
-70.498381675884772
21
-66.602037353505324
31
0
0
LINE
5
375
100
AcDbEntity
8
0
100
AcDbLine
10
-69.022738200922575
20
-59.774486728822502
30
0
11
-71.077833145579334
21
-66.413727226851336
31
0
0
LINE
5
376
100
AcDbEntity
8
0
100
AcDbLine
10
-70.782805652321187
20
-58.12818093560729
30
0
11
-72.336666844343654
21
-65.260909876010629
31
0
0
LINE
5
377
100
AcDbEntity
8
0
100
AcDbLine
10
-69.635898431386181
20
-58.403562541136722
30
0
11
-71.489721597386875
21
-65.464274798757017
31
0
0
LINE
5
378
100
AcDbEntity
8
0
100
AcDbLine
10
-71.954659417905987
20
-59.070708830765653
30
0
11
-73.134083696482804
21
-65.919946564082196
31
0
0
LINE
5
379
100
AcDbEntity
8
0
100
AcDbLine
10
-72.744672070894694
20
-58.945612919664114
30
0
11
-73.735859350965598
21
-65.824601028248509
31
0
0
LINE
5
380
100
AcDbEntity
8
0
100
AcDbLine
10
-74.74060913735633
20
-57.594911092845521
30
0
11
-75.159535083551219
21
-64.882901748228207
31
0
0
LINE
5
381
100
AcDbEntity
8
0
100
AcDbLine
10
-73.564743073351551
20
-57.687486476283553
30
0
11
-74.291203855111775
21
-64.951271484684781
31
0
0
LINE
5
382
100
AcDbEntity
8
0
100
AcDbLine
10
-75.750591591442372
20
-58.709153222503723
30
0
11
-75.844038359262768
21
-65.658568079739368
31
0
0
LINE
5
383
100
AcDbEntity
8
0
100
AcDbLine
10
-76.550447189653823
20
-58.709182656397907
30
0
11
-76.453320484741567
21
-65.658534858251898
31
0
0
LINE
5
384
100
AcDbEntity
8
0
100
AcDbLine
10
-78.733107276466882
20
-57.687343557674495
30
0
11
-78.006782629703352
21
-64.95114141064677
31
0
0
LINE
5
385
100
AcDbEntity
8
0
100
AcDbLine
10
-77.55723609436383
20
-57.594833205840814
30
0
11
-77.138446616451546
21
-64.882832470995851
31
0
0
LINE
5
386
100
AcDbEntity
8
0
100
AcDbLine
10
-79.556349299094961
20
-58.945863582642787
30
0
11
-78.561517586603188
21
-65.824337906226788
31
0
0
LINE
5
387
100
AcDbEntity
8
0
100
AcDbLine
10
-80.34635274313267
20
-59.071017636772538
30
0
11
-79.163303635057218
21
-65.919617817108787
31
0
0
LINE
5
388
100
AcDbEntity
8
0
100
AcDbLine
10
-82.661991515126303
20
-58.40320233604443
30
0
11
-80.808300798740987
21
-65.463948576303153
31
0
0
LINE
5
389
100
AcDbEntity
8
0
100
AcDbLine
10
-81.515069065921068
20
-58.127884160825438
30
0
11
-79.961341315165058
21
-65.260642953343293
31
0
0
LINE
5
390
100
AcDbEntity
8
0
100
AcDbLine
10
-83.278222155515664
20
-59.775011316519567
30
0
11
-81.219608021130426
21
-66.413174240257788
31
0
0
LINE
5
391
100
AcDbEntity
8
0
100
AcDbLine
10
-84.038920938716316
20
-60.022208282709713
30
0
11
-81.799080022833394
21
-66.601421175887481
31
0
0
LINE
5
392
100
AcDbEntity
8
0
100
AcDbLine
10
-86.430519684159549
20
-59.724860609032774
30
0
11
-83.49510691563664
21
-66.408696230869481
31
0
0
LINE
5
393
100
AcDbEntity
8
0
100
AcDbLine
10
-85.340787004968973
20
-59.273513857630995
30
0
11
-82.690378915119581
21
-66.075399983770652
31
0
0
LINE
5
394
100
AcDbEntity
8
0
100
AcDbLine
10
-86.824565298791597
20
-61.176180055142488
30
0
11
-83.752858654650041
21
-67.410577977052839
31
0
0
LINE
5
395
100
AcDbEntity
8
0
100
AcDbLine
10
-87.537228492498244
20
-61.539333123685722
30
0
11
-84.295748085762696
21
-67.687156673119247
31
0
0
LINE
5
396
100
AcDbEntity
8
0
100
AcDbLine
10
-89.945898113017094
20
-61.619774763626218
30
0
11
-86.001042896794047
21
-67.762121551652655
31
0
0
LINE
5
397
100
AcDbEntity
8
0
100
AcDbLine
10
-88.940188039018238
20
-61.003513090995163
30
0
11
-85.258361453447762
21
-67.307041540165244
31
0
0
LINE
5
398
100
AcDbEntity
8
0
100
AcDbLine
10
-90.108055991097146
20
-63.114868373954195
30
0
11
-86.098892449187957
21
-68.791989726418805
31
0
0
LINE
5
399
100
AcDbEntity
8
0
100
AcDbLine
10
-90.755135462287228
20
-63.585035511067062
30
0
11
-86.591831570169575
21
-69.1500898975127
31
0
0
LINE
5
400
100
AcDbEntity
8
0
100
AcDbLine
10
-93.121566517908363
20
-64.041285724479181
30
0
11
-88.264404281632451
21
-69.490898715493884
31
0
0
LINE
5
401
100
AcDbEntity
8
0
100
AcDbLine
10
-92.224642968883458
20
-63.275283538254243
30
0
11
-87.602056677410488
21
-68.925240519824683
31
0
0
LINE
5
402
100
AcDbEntity
8
0
100
AcDbLine
10
-93.047843794306971
20
-65.543339332407925
30
0
11
-88.199942266682868
21
-70.523394546443555
31
0
0
LINE
5
403
100
AcDbEntity
8
0
100
AcDbLine
10
-93.613406298866124
20
-66.108943462779436
30
0
11
-88.630793280403736
21
-70.954198577886288
31
0
0
LINE
5
404
100
AcDbEntity
8
0
100
AcDbLine
10
-95.879329403265757
20
-66.929767855201291
30
0
11
-90.229459601191365
21
-71.552459491136858
31
0
0
LINE
5
405
100
AcDbEntity
8
0
100
AcDbLine
10
-95.11327761371038
20
-66.032886671422844
30
0
11
-89.663755032315336
21
-70.890151493375171
31
0
0
LINE
5
406
100
AcDbEntity
8
0
100
AcDbLine
10
-95.57154137610965
20
-68.401795915873478
30
0
11
-90.004273287643514
21
-72.562159504254907
31
0
0
LINE
5
407
100
AcDbEntity
8
0
100
AcDbLine
10
-96.041660888181312
20
-69.048909988681402
30
0
11
-90.3624272122333
21
-73.055059571035741
31
0
0
LINE
5
408
100
AcDbEntity
8
0
100
AcDbLine
10
-98.151281494361456
20
-70.214097139411621
30
0
11
-91.847822671858495
21
-73.896041410357384
31
0
0
LINE
5
409
100
AcDbEntity
8
0
100
AcDbLine
10
-97.534964201714601
20
-69.20842114940227
30
0
11
-91.392690662279946
21
-73.15339183148231
31
0
0
LINE
5
410
100
AcDbEntity
8
0
100
AcDbLine
10
-97.617006926369129
20
-71.61985343659245
30
0
11
-91.46745689410244
21
-74.858083440318566
31
0
0
LINE
5
411
100
AcDbEntity
8
0
100
AcDbLine
10
-97.98010754332887
20
-72.332543355715757
30
0
11
-91.74409479129298
21
-75.400942706951824
31
0
0
LINE
5
412
100
AcDbEntity
8
0
100
AcDbLine
10
-99.881479790536019
20
-73.81340249006891
30
0
11
-93.079644023794955
21
-76.463937708401716
31
0
0
LINE
5
413
100
AcDbEntity
8
0
100
AcDbLine
10
-99.430072771982466
20
-72.723694774349937
30
0
11
-92.74629143408626
21
-75.65923304575783
31
0
0
LINE
5
414
100
AcDbEntity
8
0
100
AcDbLine
10
-99.133874294727079
20
-75.118272638284125
30
0
11
-92.553464649640688
21
-77.354633087593996
31
0
0
LINE
5
415
100
AcDbEntity
8
0
100
AcDbLine
10
-99.381015274323488
20
-75.878989612631798
30
0
11
-92.741774776294662
21
-77.934084557288543
31
0
0
LINE
5
416
100
AcDbEntity
8
0
100
AcDbLine
10
-101.02732106753871
20
-77.639057064030396
30
0
11
-93.894592127135382
21
-79.192918256052863
31
0
0
LINE
5
417
100
AcDbEntity
8
0
100
AcDbLine
10
-100.75193946200928
20
-76.49214984309539
30
0
11
-93.69122720438898
21
-78.345973009096085
31
0
0
LINE
5
418
100
AcDbEntity
8
0
100
AcDbLine
10
-100.08479317238036
20
-78.81091082961521
30
0
11
-93.235555439063802
21
-79.990335108192014
31
0
0
LINE
5
419
100
AcDbEntity
8
0
100
AcDbLine
10
-100.20988908348188
20
-79.600923482603903
30
0
11
-93.330900974897503
21
-80.592110762674807
31
0
0
LINE
5
420
100
AcDbEntity
8
0
100
AcDbLine
10
-101.56059091030052
20
-81.596860549065568
30
0
11
-94.272600254917833
21
-82.015786495260443
31
0
0
LINE
5
421
100
AcDbEntity
8
0
100
AcDbLine
10
-101.46801552686247
20
-80.42099448506076
30
0
11
-94.204230518461259
21
-81.147455266820998
31
0
0
LINE
5
422
100
AcDbEntity
8
0
100
AcDbLine
10
-100.44634878064228
20
-82.60684300315161
30
0
11
-93.496933923406658
21
-82.700289770972006
31
0
0
LINE
5
423
100
AcDbEntity
8
0
100
AcDbLine
10
-100.4463193467481
20
-83.406698601363033
30
0
11
-93.496967144894128
21
-83.309571896450777
31
0
0
LINE
5
424
100
AcDbEntity
8
0
100
AcDbLine
10
-101.4681584454715
20
-85.589358688176134
30
0
11
-94.204360592499242
21
-84.863034041412604
31
0
0
LINE
5
425
100
AcDbEntity
8
0
100
AcDbLine
10
-101.56066879730518
20
-84.413487506073068
30
0
11
-94.272669532150175
21
-83.994698028160769
31
0
0
LINE
5
426
100
AcDbEntity
8
0
100
AcDbLine
10
-100.20963842050323
20
-86.412600710804213
30
0
11
-93.331164096919238
21
-85.417768998312411
31
0
0
LINE
5
427
100
AcDbEntity
8
0
100
AcDbLine
10
-100.08448436637349
20
-87.202604154841893
30
0
11
-93.235884186037225
21
-86.019555046766456
31
0
0
ARC
5
428
100
AcDbEntity
8
0
100
AcDbCircle
10
-76.149625295718394
20
-83.005876707427603
30
0
40
25.449999999999989
210
0
220
0
230
1
100
AcDbArc
50
201.17058285911355
51
203.8262483885353
0
ARC
5
429
100
AcDbEntity
8
0
100
AcDbCircle
10
-76.149625295718394
20
-83.005876707427603
30
0
40
25.449999999999982
210
0
220
0
230
1
100
AcDbArc
50
201.17058285911352
51
203.82624838853536
0
ARC
5
430
100
AcDbEntity
8
0
100
AcDbCircle
10
-76.149625295718394
20
-83.005876707427603
30
0
40
24.300000000000011
210
0
220
0
230
1
100
AcDbArc
50
197.05909568819837
51
198.94512116772995
0
ARC
5
431
100
AcDbEntity
8
0
100
AcDbCircle
10
-76.149625295718394
20
-83.005876707427603
30
0
40
24.299999999999994
210
0
220
0
230
1
100
AcDbArc
50
206.05909568819834
51
207.94512116772992
0
ARC
5
432
100
AcDbEntity
8
0
100
AcDbCircle
10
-76.149625295718394
20
-83.005876707427603
30
0
40
24.299999999999997
210
0
220
0
230
1
100
AcDbArc
50
215.05909568819845
51
216.94512116772998
0
ARC
5
433
100
AcDbEntity
8
0
100
AcDbCircle
10
-76.149625295718394
20
-83.005876707427603
30
0
40
24.300000000000004
210
0
220
0
230
1
100
AcDbArc
50
224.0590956881984
51
225.94512116772998
0
ARC
5
434
100
AcDbEntity
8
0
100
AcDbCircle
10
-76.149625295718394
20
-83.005876707427603
30
0
40
24.300000000000015
210
0
220
0
230
1
100
AcDbArc
50
233.0590956881984
51
234.94512116772995
0
ARC
5
435
100
AcDbEntity
8
0
100
AcDbCircle
10
-76.149625295718394
20
-83.005876707427603
30
0
40
24.300000000000011
210
0
220
0
230
1
100
AcDbArc
50
242.05909568819837
51
243.94512116772998
0
ARC
5
436
100
AcDbEntity
8
0
100
AcDbCircle
10
-76.14962529571838
20
-83.005876707427603
30
0
40
24.300000000000018
210
0
220
0
230
1
100
AcDbArc
50
251.05909568819837
51
252.94512116772989
0
ARC
5
437
100
AcDbEntity
8
0
100
AcDbCircle
10
-76.149625295718394
20
-83.005876707427603
30
0
40
24.300000000000015
210
0
220
0
230
1
100
AcDbArc
50
260.05909568819834
51
261.94512116772995
0
ARC
5
438
100
AcDbEntity
8
0
100
AcDbCircle
10
-76.149625295718394
20
-83.005876707427603
30
0
40
24.300000000000018
210
0
220
0
230
1
100
AcDbArc
50
269.05909568819834
51
270.94512116772995
0
ARC
5
439
100
AcDbEntity
8
0
100
AcDbCircle
10
-76.14962529571838
20
-83.005876707427603
30
0
40
24.300000000000015
210
0
220
0
230
1
100
AcDbArc
50
278.05909568819834
51
279.94512116772995
0
ARC
5
440
100
AcDbEntity
8
0
100
AcDbCircle
10
-76.149625295718394
20
-83.005876707427603
30
0
40
24.300000000000011
210
0
220
0
230
1
100
AcDbArc
50
287.0590956881984
51
288.94512116772995
0
ARC
5
441
100
AcDbEntity
8
0
100
AcDbCircle
10
-76.149625295718394
20
-83.005876707427603
30
0
40
24.300000000000015
210
0
220
0
230
1
100
AcDbArc
50
296.0590956881984
51
297.94512116772995
0
ARC
5
442
100
AcDbEntity
8
0
100
AcDbCircle
10
-76.14962529571838
20
-83.005876707427603
30
0
40
24.300000000000011
210
0
220
0
230
1
100
AcDbArc
50
305.0590956881984
51
306.94512116773001
0
ARC
5
443
100
AcDbEntity
8
0
100
AcDbCircle
10
-76.149625295718394
20
-83.005876707427603
30
0
40
24.300000000000018
210
0
220
0
230
1
100
AcDbArc
50
314.0590956881984
51
315.94512116772995
0
ARC
5
444
100
AcDbEntity
8
0
100
AcDbCircle
10
-76.149625295718408
20
-83.005876707427603
30
0
40
24.300000000000011
210
0
220
0
230
1
100
AcDbArc
50
323.05909568819834
51
324.94512116772989
0
ARC
5
445
100
AcDbEntity
8
0
100
AcDbCircle
10
-76.149625295718408
20
-83.005876707427603
30
0
40
24.300000000000001
210
0
220
0
230
1
100
AcDbArc
50
332.0590956881984
51
333.94512116772995
0
ARC
5
446
100
AcDbEntity
8
0
100
AcDbCircle
10
-76.149625295718408
20
-83.005876707427603
30
0
40
24.300000000000018
210
0
220
0
230
1
100
AcDbArc
50
341.0590956881984
51
342.94512116772989
0
ARC
5
447
100
AcDbEntity
8
0
100
AcDbCircle
10
-76.149625295718408
20
-83.005876707427603
30
0
40
24.299999999999994
210
0
220
0
230
1
100
AcDbArc
50
350.0590956881984
51
351.94512116773001
0
ARC
5
448
100
AcDbEntity
8
0
100
AcDbCircle
10
-76.149625295718394
20
-83.005876707427603
30
0
40
24.300000000000004
210
0
220
0
230
1
100
AcDbArc
50
-0.94090431180138268
51
0.94512116772965515
0
ARC
5
449
100
AcDbEntity
8
0
100
AcDbCircle
10
-76.149625295718394
20
-83.005876707427603
30
0
40
24.299999999999997
210
0
220
-0
230
1
100
AcDbArc
50
8.0590956881983455
51
9.9451211677299245
0
ARC
5
450
100
AcDbEntity
8
0
100
AcDbCircle
10
-76.14962529571838
20
-83.005876707427632
30
0
40
24.300000000000018
210
0
220
-0
230
1
100
AcDbArc
50
17.059095688198365
51
18.945121167729926
0
ARC
5
451
100
AcDbEntity
8
0
100
AcDbCircle
10
-76.14962529571838
20
-83.005876707427603
30
0
40
24.300000000000001
210
0
220
-0
230
1
100
AcDbArc
50
26.059095688198358
51
27.94512116772994
0
ARC
5
452
100
AcDbEntity
8
0
100
AcDbCircle
10
-76.14962529571838
20
-83.005876707427603
30
0
40
24.300000000000011
210
0
220
-0
230
1
100
AcDbArc
50
35.059095688198347
51
36.945121167729916
0
ARC
5
453
100
AcDbEntity
8
0
100
AcDbCircle
10
-76.149625295718394
20
-83.005876707427589
30
0
40
24.300000000000026
210
0
220
-0
230
1
100
AcDbArc
50
44.059095688198354
51
45.945121167729909
0
ARC
5
454
100
AcDbEntity
8
0
100
AcDbCircle
10
-76.149625295718394
20
-83.005876707427603
30
0
40
24.300000000000004
210
0
220
-0
230
1
100
AcDbArc
50
53.059095688198383
51
54.945121167729909
0
ARC
5
455
100
AcDbEntity
8
0
100
AcDbCircle
10
-76.149625295718394
20
-83.005876707427603
30
0
40
24.300000000000011
210
0
220
-0
230
1
100
AcDbArc
50
62.059095688198376
51
63.94512116772993
0
ARC
5
456
100
AcDbEntity
8
0
100
AcDbCircle
10
-76.149625295718394
20
-83.005876707427603
30
0
40
24.300000000000018
210
0
220
-0
230
1
100
AcDbArc
50
71.059095688198369
51
72.945121167729923
0
ARC
5
457
100
AcDbEntity
8
0
100
AcDbCircle
10
-76.149625295718394
20
-83.005876707427603
30
0
40
24.300000000000015
210
0
220
-0
230
1
100
AcDbArc
50
80.059095688198354
51
81.945121167729951
0
ARC
5
458
100
AcDbEntity
8
0
100
AcDbCircle
10
-76.149625295718394
20
-83.005876707427632
30
0
40
24.300000000000018
210
0
220
-0
230
1
100
AcDbArc
50
89.059095688198383
51
90.945121167729937
0
ARC
5
459
100
AcDbEntity
8
0
100
AcDbCircle
10
-76.149625295718394
20
-83.005876707427603
30
0
40
24.299999999999997
210
0
220
0
230
1
100
AcDbArc
50
98.059095688198397
51
99.945121167729951
0
ARC
5
460
100
AcDbEntity
8
0
100
AcDbCircle
10
-76.149625295718394
20
-83.005876707427603
30
0
40
24.300000000000011
210
0
220
0
230
1
100
AcDbArc
50
107.05909568819835
51
108.94512116772995
0
ARC
5
461
100
AcDbEntity
8
0
100
AcDbCircle
10
-76.149625295718394
20
-83.005876707427603
30
0
40
24.300000000000015
210
0
220
0
230
1
100
AcDbArc
50
116.05909568819843
51
117.94512116772992
0
ARC
5
462
100
AcDbEntity
8
0
100
AcDbCircle
10
-76.149625295718394
20
-83.005876707427603
30
0
40
24.300000000000015
210
0
220
0
230
1
100
AcDbArc
50
125.05909568819837
51
126.94512116772989
0
ARC
5
463
100
AcDbEntity
8
0
100
AcDbCircle
10
-76.149625295718394
20
-83.005876707427603
30
0
40
24.300000000000004
210
0
220
0
230
1
100
AcDbArc
50
134.05909568819843
51
135.94512116772995
0
ARC
5
464
100
AcDbEntity
8
0
100
AcDbCircle
10
-76.149625295718394
20
-83.005876707427603
30
0
40
24.300000000000018
210
0
220
0
230
1
100
AcDbArc
50
143.05909568819843
51
144.94512116773001
0
ARC
5
465
100
AcDbEntity
8
0
100
AcDbCircle
10
-76.149625295718394
20
-83.005876707427603
30
0
40
24.300000000000011
210
0
220
0
230
1
100
AcDbArc
50
152.05909568819845
51
153.94512116772995
0
ARC
5
466
100
AcDbEntity
8
0
100
AcDbCircle
10
-76.149625295718394
20
-83.005876707427603
30
0
40
24.300000000000018
210
0
220
0
230
1
100
AcDbArc
50
161.05909568819843
51
162.94512116772995
0
ARC
5
467
100
AcDbEntity
8
0
100
AcDbCircle
10
-76.149625295718394
20
-83.005876707427603
30
0
40
24.300000000000029
210
0
220
0
230
1
100
AcDbArc
50
170.05909568819843
51
171.94512116772998
0
ARC
5
468
100
AcDbEntity
8
0
100
AcDbCircle
10
-76.149625295718394
20
-83.005876707427603
30
0
40
24.300000000000004
210
0
220
0
230
1
100
AcDbArc
50
179.05909568819862
51
180.94512116772967
0
ARC
5
469
100
AcDbEntity
8
0
100
AcDbCircle
10
-76.149625295718394
20
-83.005876707427603
30
0
40
24.300000000000018
210
0
220
0
230
1
100
AcDbArc
50
188.05909568819845
51
189.94512116772992
0
ARC
5
470
100
AcDbEntity
8
0
100
AcDbCircle
10
-76.149625295718394
20
-83.005876707427632
30
0
40
25.449999999999985
210
0
220
0
230
1
100
AcDbArc
50
210.17058285911352
51
212.82624838853525
0
ARC
5
471
100
AcDbEntity
8
0
100
AcDbCircle
10
-76.149625295718394
20
-83.005876707427632
30
0
40
25.449999999999978
210
0
220
0
230
1
100
AcDbArc
50
210.17058285911347
51
212.82624838853536
0
ARC
5
472
100
AcDbEntity
8
0
100
AcDbCircle
10
-76.149625295718394
20
-83.005876707427603
30
0
40
25.450000000000003
210
0
220
0
230
1
100
AcDbArc
50
219.17058285911352
51
221.8262483885353
0
ARC
5
473
100
AcDbEntity
8
0
100
AcDbCircle
10
-76.149625295718394
20
-83.005876707427603
30
0
40
25.449999999999985
210
0
220
0
230
1
100
AcDbArc
50
219.17058285911349
51
221.82624838853536
0
ARC
5
474
100
AcDbEntity
8
0
100
AcDbCircle
10
-76.149625295718394
20
-83.005876707427603
30
0
40
25.449999999999974
210
0
220
0
230
1
100
AcDbArc
50
228.17058285911352
51
230.8262483885353
0
ARC
5
475
100
AcDbEntity
8
0
100
AcDbCircle
10
-76.149625295718394
20
-83.005876707427603
30
0
40
25.449999999999974
210
0
220
0
230
1
100
AcDbArc
50
228.17058285911347
51
230.8262483885353
0
ARC
5
476
100
AcDbEntity
8
0
100
AcDbCircle
10
-76.149625295718394
20
-83.005876707427603
30
0
40
25.449999999999996
210
0
220
0
230
1
100
AcDbArc
50
237.17058285911361
51
239.8262483885353
0
ARC
5
477
100
AcDbEntity
8
0
100
AcDbCircle
10
-76.149625295718394
20
-83.005876707427603
30
0
40
25.449999999999982
210
0
220
0
230
1
100
AcDbArc
50
237.17058285911361
51
239.82624838853542
0
ARC
5
478
100
AcDbEntity
8
0
100
AcDbCircle
10
-76.149625295718394
20
-83.005876707427603
30
0
40
25.449999999999982
210
0
220
0
230
1
100
AcDbArc
50
246.17058285911355
51
248.8262483885353
0
ARC
5
479
100
AcDbEntity
8
0
100
AcDbCircle
10
-76.149625295718394
20
-83.005876707427603
30
0
40
25.449999999999982
210
0
220
0
230
1
100
AcDbArc
50
246.17058285911355
51
248.82624838853542
0
ARC
5
480
100
AcDbEntity
8
0
100
AcDbCircle
10
-76.14962529571838
20
-83.005876707427632
30
0
40
25.449999999999996
210
0
220
0
230
1
100
AcDbArc
50
255.17058285911347
51
257.82624838853525
0
ARC
5
481
100
AcDbEntity
8
0
100
AcDbCircle
10
-76.14962529571838
20
-83.005876707427632
30
0
40
25.449999999999996
210
0
220
0
230
1
100
AcDbArc
50
255.17058285911347
51
257.8262483885353
0
ARC
5
482
100
AcDbEntity
8
0
100
AcDbCircle
10
-76.149625295718394
20
-83.005876707427603
30
0
40
25.449999999999982
210
0
220
0
230
1
100
AcDbArc
50
264.17058285911355
51
266.82624838853525
0
ARC
5
483
100
AcDbEntity
8
0
100
AcDbCircle
10
-76.149625295718394
20
-83.005876707427603
30
0
40
25.449999999999967
210
0
220
0
230
1
100
AcDbArc
50
264.17058285911355
51
266.82624838853536
0
ARC
5
484
100
AcDbEntity
8
0
100
AcDbCircle
10
-76.149625295718394
20
-83.005876707427603
30
0
40
25.449999999999978
210
0
220
0
230
1
100
AcDbArc
50
273.17058285911349
51
275.82624838853525
0
ARC
5
485
100
AcDbEntity
8
0
100
AcDbCircle
10
-76.149625295718394
20
-83.005876707427603
30
0
40
25.449999999999978
210
0
220
0
230
1
100
AcDbArc
50
273.17058285911349
51
275.82624838853536
0
ARC
5
486
100
AcDbEntity
8
0
100
AcDbCircle
10
-76.14962529571838
20
-83.005876707427603
30
0
40
25.449999999999982
210
0
220
0
230
1
100
AcDbArc
50
282.17058285911355
51
284.8262483885353
0
ARC
5
487
100
AcDbEntity
8
0
100
AcDbCircle
10
-76.14962529571838
20
-83.005876707427603
30
0
40
25.449999999999978
210
0
220
0
230
1
100
AcDbArc
50
282.17058285911349
51
284.82624838853536
0
ARC
5
488
100
AcDbEntity
8
0
100
AcDbCircle
10
-76.14962529571838
20
-83.005876707427603
30
0
40
25.450000000000003
210
0
220
0
230
1
100
AcDbArc
50
291.17058285911349
51
293.8262483885353
0
ARC
5
489
100
AcDbEntity
8
0
100
AcDbCircle
10
-76.14962529571838
20
-83.005876707427603
30
0
40
25.449999999999999
210
0
220
0
230
1
100
AcDbArc
50
291.17058285911349
51
293.82624838853536
0
ARC
5
490
100
AcDbEntity
8
0
100
AcDbCircle
10
-76.149625295718394
20
-83.005876707427603
30
0
40
25.449999999999978
210
0
220
0
230
1
100
AcDbArc
50
300.17058285911355
51
302.8262483885353
0
ARC
5
491
100
AcDbEntity
8
0
100
AcDbCircle
10
-76.149625295718394
20
-83.005876707427603
30
0
40
25.449999999999967
210
0
220
0
230
1
100
AcDbArc
50
300.17058285911349
51
302.82624838853536
0
ARC
5
492
100
AcDbEntity
8
0
100
AcDbCircle
10
-76.14962529571838
20
-83.005876707427603
30
0
40
25.449999999999989
210
0
220
0
230
1
100
AcDbArc
50
309.17058285911355
51
311.82624838853525
0
ARC
5
493
100
AcDbEntity
8
0
100
AcDbCircle
10
-76.14962529571838
20
-83.005876707427603
30
0
40
25.449999999999989
210
0
220
0
230
1
100
AcDbArc
50
309.17058285911355
51
311.82624838853542
0
ARC
5
494
100
AcDbEntity
8
0
100
AcDbCircle
10
-76.149625295718394
20
-83.005876707427603
30
0
40
25.449999999999985
210
0
220
0
230
1
100
AcDbArc
50
318.17058285911349
51
320.8262483885353
0
ARC
5
495
100
AcDbEntity
8
0
100
AcDbCircle
10
-76.149625295718394
20
-83.005876707427603
30
0
40
25.449999999999974
210
0
220
0
230
1
100
AcDbArc
50
318.17058285911349
51
320.8262483885353
0
ARC
5
496
100
AcDbEntity
8
0
100
AcDbCircle
10
-76.14962529571838
20
-83.005876707427603
30
0
40
25.449999999999989
210
0
220
0
230
1
100
AcDbArc
50
327.17058285911349
51
329.82624838853525
0
ARC
5
497
100
AcDbEntity
8
0
100
AcDbCircle
10
-76.14962529571838
20
-83.005876707427603
30
0
40
25.449999999999978
210
0
220
0
230
1
100
AcDbArc
50
327.17058285911349
51
329.8262483885353
0
ARC
5
498
100
AcDbEntity
8
0
100
AcDbCircle
10
-76.14962529571838
20
-83.005876707427603
30
0
40
25.449999999999999
210
0
220
0
230
1
100
AcDbArc
50
336.17058285911344
51
338.82624838853525
0
ARC
5
499
100
AcDbEntity
8
0
100
AcDbCircle
10
-76.14962529571838
20
-83.005876707427603
30
0
40
25.449999999999989
210
0
220
0
230
1
100
AcDbArc
50
336.17058285911344
51
338.8262483885353
0
ARC
5
500
100
AcDbEntity
8
0
100
AcDbCircle
10
-76.14962529571838
20
-83.005876707427603
30
0
40
25.449999999999996
210
0
220
0
230
1
100
AcDbArc
50
345.17058285911344
51
347.82624838853536
0
ARC
5
501
100
AcDbEntity
8
0
100
AcDbCircle
10
-76.14962529571838
20
-83.005876707427603
30
0
40
25.449999999999982
210
0
220
0
230
1
100
AcDbArc
50
345.17058285911344
51
347.82624838853536
0
ARC
5
502
100
AcDbEntity
8
0
100
AcDbCircle
10
-76.14962529571838
20
-83.005876707427603
30
0
40
25.449999999999982
210
0
220
0
230
1
100
AcDbArc
50
354.17058285911361
51
356.82624838853536
0
ARC
5
503
100
AcDbEntity
8
0
100
AcDbCircle
10
-76.14962529571838
20
-83.005876707427603
30
0
40
25.449999999999967
210
0
220
0
230
1
100
AcDbArc
50
354.17058285911355
51
356.82624838853536
0
ARC
5
504
100
AcDbEntity
8
0
100
AcDbCircle
10
-76.149625295718351
20
-83.005876707427603
30
0
40
25.449999999999978
210
0
220
-0
230
1
100
AcDbArc
50
3.1705828591135168
51
5.8262483885352605
0
ARC
5
505
100
AcDbEntity
8
0
100
AcDbCircle
10
-76.149625295718351
20
-83.005876707427603
30
0
40
25.449999999999978
210
0
220
-0
230
1
100
AcDbArc
50
3.1705828591134018
51
5.8262483885353227
0
ARC
5
506
100
AcDbEntity
8
0
100
AcDbCircle
10
-76.149625295718351
20
-83.005876707427603
30
0
40
25.449999999999982
210
0
220
-0
230
1
100
AcDbArc
50
12.170582859113534
51
14.826248388535253
0
ARC
5
507
100
AcDbEntity
8
0
100
AcDbCircle
10
-76.149625295718351
20
-83.005876707427603
30
0
40
25.449999999999978
210
0
220
-0
230
1
100
AcDbArc
50
12.170582859113443
51
14.826248388535328
0
ARC
5
508
100
AcDbEntity
8
0
100
AcDbCircle
10
-76.14962529571838
20
-83.005876707427632
30
0
40
25.449999999999996
210
0
220
-0
230
1
100
AcDbArc
50
21.170582859113527
51
23.826248388535259
0
ARC
5
509
100
AcDbEntity
8
0
100
AcDbCircle
10
-76.14962529571838
20
-83.005876707427632
30
0
40
25.449999999999989
210
0
220
-0
230
1
100
AcDbArc
50
21.170582859113512
51
23.82624838853534
0
ARC
5
510
100
AcDbEntity
8
0
100
AcDbCircle
10
-76.14962529571838
20
-83.005876707427603
30
0
40
25.449999999999985
210
0
220
-0
230
1
100
AcDbArc
50
30.17058285911353
51
32.826248388535276
0
ARC
5
511
100
AcDbEntity
8
0
100
AcDbCircle
10
-76.14962529571838
20
-83.005876707427603
30
0
40
25.449999999999978
210
0
220
-0
230
1
100
AcDbArc
50
30.170582859113466
51
32.826248388535333
0
ARC
5
512
100
AcDbEntity
8
0
100
AcDbCircle
10
-76.14962529571838
20
-83.005876707427603
30
0
40
25.449999999999985
210
0
220
-0
230
1
100
AcDbArc
50
39.170582859113573
51
41.826248388535241
0
ARC
5
513
100
AcDbEntity
8
0
100
AcDbCircle
10
-76.14962529571838
20
-83.005876707427603
30
0
40
25.449999999999982
210
0
220
-0
230
1
100
AcDbArc
50
39.170582859113502
51
41.826248388535326
0
ARC
5
514
100
AcDbEntity
8
0
100
AcDbCircle
10
-76.14962529571838
20
-83.005876707427589
30
0
40
25.450000000000003
210
0
220
-0
230
1
100
AcDbArc
50
48.170582859113495
51
50.826248388535255
0
ARC
5
515
100
AcDbEntity
8
0
100
AcDbCircle
10
-76.14962529571838
20
-83.005876707427589
30
0
40
25.449999999999996
210
0
220
-0
230
1
100
AcDbArc
50
48.170582859113452
51
50.826248388535333
0
ARC
5
516
100
AcDbEntity
8
0
100
AcDbCircle
10
-76.14962529571838
20
-83.005876707427603
30
0
40
25.449999999999985
210
0
220
-0
230
1
100
AcDbArc
50
57.17058285911348
51
59.826248388535248
0
ARC
5
517
100
AcDbEntity
8
0
100
AcDbCircle
10
-76.14962529571838
20
-83.005876707427603
30
0
40
25.449999999999982
210
0
220
-0
230
1
100
AcDbArc
50
57.170582859113438
51
59.826248388535312
0
ARC
5
518
100
AcDbEntity
8
0
100
AcDbCircle
10
-76.14962529571838
20
-83.005876707427575
30
0
40
25.449999999999978
210
0
220
-0
230
1
100
AcDbArc
50
66.170582859113509
51
68.826248388535248
0
ARC
5
519
100
AcDbEntity
8
0
100
AcDbCircle
10
-76.14962529571838
20
-83.005876707427575
30
0
40
25.449999999999982
210
0
220
-0
230
1
100
AcDbArc
50
66.170582859113495
51
68.826248388535348
0
ARC
5
520
100
AcDbEntity
8
0
100
AcDbCircle
10
-76.14962529571838
20
-83.005876707427603
30
0
40
25.449999999999996
210
0
220
-0
230
1
100
AcDbArc
50
75.170582859113551
51
77.826248388535291
0
ARC
5
521
100
AcDbEntity
8
0
100
AcDbCircle
10
-76.14962529571838
20
-83.005876707427603
30
0
40
25.449999999999982
210
0
220
-0
230
1
100
AcDbArc
50
75.170582859113509
51
77.826248388535333
0
ARC
5
522
100
AcDbEntity
8
0
100
AcDbCircle
10
-76.14962529571838
20
-83.005876707427603
30
0
40
25.449999999999982
210
0
220
-0
230
1
100
AcDbArc
50
84.170582859113551
51
86.826248388535248
0
ARC
5
523
100
AcDbEntity
8
0
100
AcDbCircle
10
-76.14962529571838
20
-83.005876707427603
30
0
40
25.449999999999967
210
0
220
-0
230
1
100
AcDbArc
50
84.170582859113495
51
86.826248388535333
0
ARC
5
524
100
AcDbEntity
8
0
100
AcDbCircle
10
-76.14962529571838
20
-83.005876707427589
30
0
40
25.449999999999978
210
0
220
0
230
1
100
AcDbArc
50
93.170582859113509
51
95.826248388535262
0
ARC
5
525
100
AcDbEntity
8
0
100
AcDbCircle
10
-76.14962529571838
20
-83.005876707427589
30
0
40
25.449999999999978
210
0
220
0
230
1
100
AcDbArc
50
93.170582859113495
51
95.826248388535362
0
ARC
5
526
100
AcDbEntity
8
0
100
AcDbCircle
10
-76.14962529571838
20
-83.005876707427575
30
0
40
25.449999999999982
210
0
220
0
230
1
100
AcDbArc
50
102.17058285911354
51
104.8262483885353
0
ARC
5
527
100
AcDbEntity
8
0
100
AcDbCircle
10
-76.14962529571838
20
-83.005876707427575
30
0
40
25.44999999999996
210
0
220
0
230
1
100
AcDbArc
50
102.17058285911349
51
104.82624838853536
0
ARC
5
528
100
AcDbEntity
8
0
100
AcDbCircle
10
-76.14962529571838
20
-83.005876707427603
30
0
40
25.449999999999989
210
0
220
0
230
1
100
AcDbArc
50
111.17058285911357
51
113.82624838853529
0
ARC
5
529
100
AcDbEntity
8
0
100
AcDbCircle
10
-76.14962529571838
20
-83.005876707427603
30
0
40
25.449999999999978
210
0
220
0
230
1
100
AcDbArc
50
111.17058285911349
51
113.8262483885354
0
ARC
5
530
100
AcDbEntity
8
0
100
AcDbCircle
10
-76.14962529571838
20
-83.005876707427603
30
0
40
25.449999999999978
210
0
220
0
230
1
100
AcDbArc
50
120.17058285911348
51
122.82624838853529
0
ARC
5
531
100
AcDbEntity
8
0
100
AcDbCircle
10
-76.14962529571838
20
-83.005876707427603
30
0
40
25.449999999999978
210
0
220
0
230
1
100
AcDbArc
50
120.17058285911348
51
122.82624838853536
0
ARC
5
532
100
AcDbEntity
8
0
100
AcDbCircle
10
-76.14962529571838
20
-83.005876707427603
30
0
40
25.449999999999996
210
0
220
0
230
1
100
AcDbArc
50
129.17058285911355
51
131.82624838853525
0
ARC
5
533
100
AcDbEntity
8
0
100
AcDbCircle
10
-76.14962529571838
20
-83.005876707427603
30
0
40
25.450000000000003
210
0
220
0
230
1
100
AcDbArc
50
129.17058285911352
51
131.82624838853533
0
ARC
5
534
100
AcDbEntity
8
0
100
AcDbCircle
10
-76.14962529571838
20
-83.005876707427603
30
0
40
25.449999999999989
210
0
220
0
230
1
100
AcDbArc
50
138.17058285911355
51
140.82624838853533
0
ARC
5
535
100
AcDbEntity
8
0
100
AcDbCircle
10
-76.14962529571838
20
-83.005876707427603
30
0
40
25.449999999999974
210
0
220
0
230
1
100
AcDbArc
50
138.17058285911349
51
140.82624838853533
0
ARC
5
536
100
AcDbEntity
8
0
100
AcDbCircle
10
-76.14962529571838
20
-83.005876707427603
30
0
40
25.449999999999985
210
0
220
0
230
1
100
AcDbArc
50
147.17058285911358
51
149.82624838853536
0
ARC
5
537
100
AcDbEntity
8
0
100
AcDbCircle
10
-76.14962529571838
20
-83.005876707427603
30
0
40
25.449999999999996
210
0
220
0
230
1
100
AcDbArc
50
147.17058285911352
51
149.82624838853542
0
ARC
5
538
100
AcDbEntity
8
0
100
AcDbCircle
10
-76.14962529571838
20
-83.005876707427603
30
0
40
25.449999999999974
210
0
220
0
230
1
100
AcDbArc
50
156.17058285911352
51
158.8262483885353
0
ARC
5
539
100
AcDbEntity
8
0
100
AcDbCircle
10
-76.14962529571838
20
-83.005876707427603
30
0
40
25.449999999999978
210
0
220
0
230
1
100
AcDbArc
50
156.17058285911352
51
158.82624838853536
0
ARC
5
540
100
AcDbEntity
8
0
100
AcDbCircle
10
-76.149625295718394
20
-83.005876707427603
30
0
40
25.449999999999985
210
0
220
0
230
1
100
AcDbArc
50
165.17058285911361
51
167.8262483885353
0
ARC
5
541
100
AcDbEntity
8
0
100
AcDbCircle
10
-76.149625295718394
20
-83.005876707427603
30
0
40
25.449999999999989
210
0
220
0
230
1
100
AcDbArc
50
165.17058285911352
51
167.82624838853539
0
ARC
5
542
100
AcDbEntity
8
0
100
AcDbCircle
10
-76.14962529571838
20
-83.005876707427603
30
0
40
25.449999999999996
210
0
220
0
230
1
100
AcDbArc
50
174.17058285911361
51
176.8262483885353
0
ARC
5
543
100
AcDbEntity
8
0
100
AcDbCircle
10
-76.14962529571838
20
-83.005876707427603
30
0
40
25.449999999999996
210
0
220
0
230
1
100
AcDbArc
50
174.17058285911352
51
176.8262483885353
0
ARC
5
544
100
AcDbEntity
8
0
100
AcDbCircle
10
-76.14962529571838
20
-83.005876707427603
30
0
40
25.449999999999985
210
0
220
0
230
1
100
AcDbArc
50
183.17058285911338
51
185.8262483885353
0
ARC
5
545
100
AcDbEntity
8
0
100
AcDbCircle
10
-76.14962529571838
20
-83.005876707427603
30
0
40
25.449999999999985
210
0
220
0
230
1
100
AcDbArc
50
183.17058285911338
51
185.8262483885353
0
ARC
5
546
100
AcDbEntity
8
0
100
AcDbCircle
10
-76.149625295718394
20
-83.005876707427603
30
0
40
25.449999999999974
210
0
220
0
230
1
100
AcDbArc
50
192.17058285911347
51
194.82624838853528
0
ARC
5
547
100
AcDbEntity
8
0
100
AcDbCircle
10
-76.149625295718394
20
-83.005876707427603
30
0
40
25.449999999999967
210
0
220
0
230
1
100
AcDbArc
50
192.17058285911347
51
194.82624838853536
0
ENDSEC
0
SECTION
2
OBJECTS
0
DICTIONARY
5
C
100
AcDbDictionary
3
ACAD_GROUP
350
D
3
ACAD_MLINESTYLE
350
17
0
DICTIONARY
5
D
100
AcDbDictionary
0
DICTIONARY
5
1A
330
C
100
AcDbDictionary
0
DICTIONARY
5
17
100
AcDbDictionary
0
ENDSEC
0
EOF
