0
SECTION
2
HEADER
9
$INSUNITS
70
4
9
$ACADVER
1
AC1014
9
$HANDSEED
5
FFFF
0
ENDSEC
0
SECTION
2
TABLES
0
TABLE
2
VPORT
5
8
100
AcDbSymbolTable
0
ENDTAB
0
TABLE
2
LTYPE
5
5
100
AcDbSymbolTable
0
LTYPE
5
14
100
AcDbSymbolTableRecord
100
AcDbLinetypeTableRecord
2
BYBLOCK
70
0
0
LTYPE
5
15
100
AcDbSymbolTableRecord
100
AcDbLinetypeTableRecord
2
BYLAYER
70
0
0
ENDTAB
0
TABLE
2
LAYER
5
2
100
AcDbSymbolTable
70
2
0
LAYER
5
50
100
AcDbSymbolTableRecord
100
AcDbLayerTableRecord
2
0
70
0
6
CONTINUOUS
0
ENDTAB
0
TABLE
2
STYLE
5
3
100
AcDbSymbolTable
70
1
0
STYLE
5
11
100
AcDbSymbolTableRecord
100
AcDbTextStyleTableRecord
2
STANDARD
70
0
0
ENDTAB
0
TABLE
2
VIEW
5
6
100
AcDbSymbolTable
70
0
0
ENDTAB
0
TABLE
2
UCS
5
7
100
AcDbSymbolTable
70
0
0
ENDTAB
0
TABLE
2
APPID
5
9
100
AcDbSymbolTable
70
2
0
APPID
5
12
100
AcDbSymbolTableRecord
100
AcDbRegAppTableRecord
2
ACAD
70
0
0
ENDTAB
0
TABLE
2
DIMSTYLE
5
A
100
AcDbSymbolTable
70
1
0
ENDTAB
0
TABLE
2
BLOCK_RECORD
5
1
100
AcDbSymbolTable
70
1
0
BLOCK_RECORD
5
1F
100
AcDbSymbolTableRecord
100
AcDbBlockTableRecord
2
*MODEL_SPACE
0
BLOCK_RECORD
5
1B
100
AcDbSymbolTableRecord
100
AcDbBlockTableRecord
2
*PAPER_SPACE
0
ENDTAB
0
ENDSEC
0
SECTION
2
BLOCKS
0
BLOCK
5
20
100
AcDbEntity
100
AcDbBlockBegin
2
*MODEL_SPACE
0
ENDBLK
5
21
100
AcDbEntity
100
AcDbBlockEnd
0
BLOCK
5
1C
100
AcDbEntity
100
AcDbBlockBegin
2
*PAPER_SPACE
0
ENDBLK
5
1D
100
AcDbEntity
100
AcDbBlockEnd
0
ENDSEC
0
SECTION
2
ENTITIES
0
LINE
5
100
100
AcDbEntity
8
0
100
AcDbLine
10
-75.329477257023925
20
-111.52765943112854
30
0
11
-75.329477257023925
21
-177.56165943112853
31
0
0
LINE
5
101
100
AcDbEntity
8
0
100
AcDbLine
10
-127.01169528418367
20
-159.10466875244114
30
0
11
-12.712860871536833
21
-159.10466875244114
31
0
0
LINE
5
102
100
AcDbEntity
8
0
100
AcDbLine
10
-75.329477257023925
20
-159.10466875244114
30
0
11
-12.716774542480058
21
-159.10466875244114
31
0
0
LINE
5
103
100
AcDbEntity
8
0
100
AcDbLine
10
-12.716774542480058
20
-159.10466875244114
30
0
11
-12.71677454248006
21
-177.55615814895344
31
0
0
LINE
5
104
100
AcDbEntity
8
0
100
AcDbLine
10
-12.71677454248006
20
-177.55615814895344
30
0
11
-75.329477257023925
21
-177.55615814895344
31
0
0
LINE
5
105
100
AcDbEntity
8
0
100
AcDbLine
10
-75.329477257023925
20
-177.55615814895344
30
0
11
-75.329477257023925
21
-159.10466875244114
31
0
0
LINE
5
106
100
AcDbEntity
8
0
100
AcDbLine
10
-12.71677454248006
20
-177.55615814895344
30
0
11
-127.01280909064207
21
-177.55615814895344
31
0
0
LINE
5
107
100
AcDbEntity
8
0
100
AcDbLine
10
-127.01280909064207
20
-177.55615814895344
30
0
11
-127.01280909064207
21
-111.50166218755263
31
0
0
LINE
5
108
100
AcDbEntity
8
0
100
AcDbLine
10
-127.01280909064207
20
-111.50166218755263
30
0
11
-12.71677454248006
21
-111.50166218755263
31
0
0
LINE
5
109
100
AcDbEntity
8
0
100
AcDbLine
10
-12.71677454248006
20
-111.50166218755263
30
0
11
-12.71677454248006
21
-177.55615814895344
31
0
0
CIRCLE
5
110
100
AcDbEntity
8
0
100
AcDbCircle
10
-123.83281015933693
20
-174.37615921764831
30
0
40
3.1799989313051129
210
0
220
-0
230
1
0
CIRCLE
5
111
100
AcDbEntity
8
0
100
AcDbCircle
10
-123.83280909064206
20
-114.68166218755263
30
0
40
3.1800000000000006
210
0
220
0
230
1
0
CIRCLE
5
112
100
AcDbEntity
8
0
100
AcDbCircle
10
-15.89677454248006
20
-174.37615814895341
30
0
40
3.1800000000000006
210
0
220
0
230
1
0
CIRCLE
5
113
100
AcDbEntity
8
0
100
AcDbCircle
10
-15.896774542480067
20
-114.68166218755263
30
0
40
3.1800000000000006
210
-0
220
0
230
1
0
LINE
5
114
100
AcDbEntity
8
0
100
AcDbLine
10
-127.01280819028571
20
-114.68166213062193
30
0
11
-127.0128092589806
21
-174.37615916071763
31
0
0
ARC
5
115
100
AcDbEntity
8
0
100
AcDbCircle
10
-123.83281015933693
20
-174.37615921764831
30
0
40
3.179999099643656
210
0
220
0
230
1
100
AcDbArc
50
179.99999914622637
51
359.99999914622634
0
LINE
5
116
100
AcDbEntity
8
0
100
AcDbLine
10
-120.65281105969328
20
-174.37615927457898
30
0
11
-120.65280999099841
21
-114.68166224448331
31
0
0
ARC
5
117
100
AcDbEntity
8
0
100
AcDbCircle
10
-123.83280909064206
20
-114.68166218755263
30
0
40
3.179999099643656
210
0
220
0
230
1
100
AcDbArc
50
-8.5377364625159387e-07
51
179.99999914622637
0
LINE
5
118
100
AcDbEntity
8
0
100
AcDbLine
10
-123.83280909064206
20
-114.68166218755263
30
0
11
-123.83281015933693
21
-174.37615921764831
31
0
0
LINE
5
119
100
AcDbEntity
8
0
100
AcDbLine
10
-15.89677454248006
20
-174.37615814895341
30
0
11
-46.049868935155658
21
-174.37615814895341
31
0
0
CIRCLE
5
120
100
AcDbEntity
8
0
100
AcDbCircle
10
-46.049868935155658
20
-174.37615814895341
30
0
40
3.1800000000000139
210
0
220
0
230
1
0
LWPOLYLINE
5
121
100
AcDbEntity
8
0
100
AcDbPolyline
90
4
70
1
43
0.0
10
-15.89677454248006
20
-174.37615814895341
10
-46.049868935155658
20
-174.37615814895341
10
-46.049868935155658
20
-171.1961581489534
10
-15.89677454248006
20
-171.1961581489534
0
LINE
5
122
100
AcDbEntity
8
0
100
AcDbLine
10
-46.049868935155658
20
-171.1961581489534
30
0
11
-15.89677454248006
21
-171.1961581489534
31
0
0
LINE
5
123
100
AcDbEntity
8
0
100
AcDbLine
10
-123.83281010240624
20
-171.19616028634317
30
0
11
-15.89677454248006
21
-171.1961581489534
31
0
0
LINE
5
124
100
AcDbEntity
8
0
100
AcDbLine
10
-123.83280914757277
20
-117.86166218755262
30
0
11
-15.896774542480079
21
-117.86166218755262
31
0
0
LINE
5
125
100
AcDbEntity
8
0
100
AcDbLine
10
-19.052990434875582
20
-114.29345961080952
30
0
11
-19.076774293318504
21
-174.37489931320815
31
0
0
LINE
5
126
100
AcDbEntity
8
0
100
AcDbLine
10
-19.054402944718891
20
-117.86166218755262
30
0
11
-120.65281100276259
21
-117.86166218755262
31
0
0
LINE
5
127
100
AcDbEntity
8
0
100
AcDbLine
10
-120.65281100276259
20
-117.86166218755262
30
0
11
-120.65281100276259
21
-171.19616022337166
31
0
0
LINE
5
128
100
AcDbEntity
8
0
100
AcDbLine
10
-120.65281100276259
20
-171.19616022337166
30
0
11
-19.054402944718891
21
-171.19616022337166
31
0
0
LINE
5
129
100
AcDbEntity
8
0
100
AcDbLine
10
-19.054402944718891
20
-171.19616022337166
30
0
11
-19.054402944718891
21
-117.86166218755262
31
0
0
LINE
5
130
100
AcDbEntity
8
0
100
AcDbLine
10
-46.049868935155658
20
-174.37615814895341
30
0
11
-49.229868935155672
21
-174.37615814895341
31
0
0
LINE
5
131
100
AcDbEntity
8
0
100
AcDbLine
10
-49.229868935155672
20
-174.37615814895341
30
0
11
-49.229868935155672
21
-93.738952008159856
31
0
0
LINE
5
132
100
AcDbEntity
8
0
100
AcDbLine
10
-49.229868935155672
20
-93.738952008159856
30
0
11
-27.0896571357288
21
-93.738952008159856
31
0
0
LINE
5
133
100
AcDbEntity
8
0
100
AcDbLine
10
-27.0896571357288
20
-93.738952008159856
30
0
11
-27.0896571357288
21
-111.50166218755263
31
0
0
LINE
5
134
100
AcDbEntity
8
0
100
AcDbLine
10
-27.0896571357288
20
-111.50166218755263
30
0
11
-49.229868935155672
21
-111.50166218755263
31
0
0
LINE
5
135
100
AcDbEntity
8
0
100
AcDbLine
10
-49.229868935155672
20
-111.50166218755263
30
0
11
-49.229868935155672
21
-93.738952008159856
31
0
0
LINE
5
136
100
AcDbEntity
8
0
100
AcDbLine
10
-49.229868935155672
20
-111.50166218755263
30
0
11
-49.229868935155672
21
-117.86166218755262
31
0
0
LINE
5
137
100
AcDbEntity
8
0
100
AcDbLine
10
-120.65281100276259
20
-171.19616022337166
30
0
11
-114.29281100276259
21
-171.19616022337166
31
0
0
LINE
5
138
100
AcDbEntity
8
0
100
AcDbLine
10
-114.29281100276259
20
-171.19616022337166
30
0
11
-114.29281100276259
21
-164.83616022337168
31
0
0
LINE
5
139
100
AcDbEntity
8
0
100
AcDbLine
10
-114.29281100276259
20
-164.83616022337168
30
0
11
-120.65281100276259
21
-164.83616022337168
31
0
0
LINE
5
140
100
AcDbEntity
8
0
100
AcDbLine
10
-120.65281100276259
20
-164.83616022337168
30
0
11
-120.65281100276259
21
-171.19616022337166
31
0
0
LINE
5
141
100
AcDbEntity
8
0
100
AcDbLine
10
-19.054402944718891
20
-117.86166218755262
30
0
11
-25.414402944718894
21
-117.86166218755262
31
0
0
LINE
5
142
100
AcDbEntity
8
0
100
AcDbLine
10
-25.414402944718894
20
-117.86166218755262
30
0
11
-25.414402944718894
21
-124.22166218755262
31
0
0
LINE
5
143
100
AcDbEntity
8
0
100
AcDbLine
10
-25.414402944718894
20
-124.22166218755262
30
0
11
-19.054402944718891
21
-124.22166218755262
31
0
0
LINE
5
144
100
AcDbEntity
8
0
100
AcDbLine
10
-19.054402944718891
20
-124.22166218755262
30
0
11
-19.054402944718891
21
-117.86166218755262
31
0
0
LINE
5
145
100
AcDbEntity
8
0
100
AcDbLine
10
-25.414402944718894
20
-124.22166218755262
30
0
11
-114.29281100276259
21
-124.22166218755262
31
0
0
LINE
5
146
100
AcDbEntity
8
0
100
AcDbLine
10
-114.29281100276259
20
-124.22166218755262
30
0
11
-114.29281100276259
21
-164.83616022337168
31
0
0
LINE
5
147
100
AcDbEntity
8
0
100
AcDbLine
10
-114.29281100276259
20
-164.83616022337168
30
0
11
-25.414402944718894
21
-164.83616022337168
31
0
0
LINE
5
148
100
AcDbEntity
8
0
100
AcDbLine
10
-25.414402944718894
20
-164.83616022337168
30
0
11
-25.414402944718894
21
-124.22166218755262
31
0
0
LINE
5
149
100
AcDbEntity
8
0
100
AcDbLine
10
-75.329477257023925
20
-144.54465943112854
30
0
11
5.0666499408376175
21
-144.54465943112854
31
0
0
LINE
5
150
100
AcDbEntity
8
0
100
AcDbLine
10
-75.329477257023925
20
-144.54465943112854
30
0
11
-144.78009206674739
21
-144.54465818777246
31
0
0
LINE
5
151
100
AcDbEntity
8
0
100
AcDbLine
10
-144.78009206674739
20
-144.54465818777246
30
0
11
-127.01280872463315
21
-144.52891064566978
31
0
0
LINE
5
152
100
AcDbEntity
8
0
100
AcDbLine
10
-127.01280892366584
20
-155.6463555276577
30
0
11
-144.7800918677147
21
-155.6463555276577
31
0
0
LINE
5
153
100
AcDbEntity
8
0
100
AcDbLine
10
-144.7800918677147
20
-155.6463555276577
30
0
11
-144.7800918677147
21
-133.42721330578453
31
0
0
LINE
5
154
100
AcDbEntity
8
0
100
AcDbLine
10
-144.7800918677147
20
-133.42721330578453
30
0
11
-127.01280892366584
21
-133.42721330578453
31
0
0
LINE
5
155
100
AcDbEntity
8
0
100
AcDbLine
10
-127.01280892366584
20
-133.42721330578453
30
0
11
-127.01280892366584
21
-155.6463555276577
31
0
0
LINE
5
156
100
AcDbEntity
8
0
100
AcDbLine
10
-127.01280892366584
20
-155.6463555276577
30
0
11
-144.7800918677147
21
-133.42721330578453
31
0
0
LINE
5
157
100
AcDbEntity
8
0
100
AcDbLine
10
-144.7800918677147
20
-155.6463555276577
30
0
11
-127.01280892366584
21
-133.42721330578453
31
0
0
LINE
5
158
100
AcDbEntity
8
0
100
AcDbLine
10
5.0666499408376175
20
-144.54465943112854
30
0
11
-12.71677454248006
21
-144.52891016825302
31
0
0
LINE
5
159
100
AcDbEntity
8
0
100
AcDbLine
10
-12.71677454248006
20
-155.57553966127645
30
0
11
5.0666499408376175
21
-155.57553966127645
31
0
0
LINE
5
160
100
AcDbEntity
8
0
100
AcDbLine
10
5.0666499408376175
20
-155.57553966127645
30
0
11
5.0666499408376175
21
-133.49802993810511
31
0
0
LINE
5
161
100
AcDbEntity
8
0
100
AcDbLine
10
5.0666499408376175
20
-133.49802993810511
30
0
11
-12.71677454248006
21
-133.49802993810511
31
0
0
LINE
5
162
100
AcDbEntity
8
0
100
AcDbLine
10
-12.71677454248006
20
-133.49802993810511
30
0
11
-12.71677454248006
21
-155.57553966127645
31
0
0
LINE
5
163
100
AcDbEntity
8
0
100
AcDbLine
10
-12.71677454248006
20
-155.57553966127645
30
0
11
5.0666499408376175
21
-133.49802993810511
31
0
0
LINE
5
164
100
AcDbEntity
8
0
100
AcDbLine
10
5.0666499408376175
20
-155.57553966127645
30
0
11
-12.71677454248006
21
-133.49802993810511
31
0
0
ENDSEC
0
SECTION
2
OBJECTS
0
DICTIONARY
5
C
100
AcDbDictionary
3
ACAD_GROUP
350
D
3
ACAD_MLINESTYLE
350
17
0
DICTIONARY
5
D
100
AcDbDictionary
0
DICTIONARY
5
1A
330
C
100
AcDbDictionary
0
DICTIONARY
5
17
100
AcDbDictionary
0
ENDSEC
0
EOF
