0
SECTION
2
HEADER
9
$INSUNITS
70
4
9
$ACADVER
1
AC1014
9
$HANDSEED
5
FFFF
0
ENDSEC
0
SECTION
2
TABLES
0
TABLE
2
VPORT
5
8
100
AcDbSymbolTable
0
ENDTAB
0
TABLE
2
LTYPE
5
5
100
AcDbSymbolTable
0
LTYPE
5
14
100
AcDbSymbolTableRecord
100
AcDbLinetypeTableRecord
2
BYBLOCK
70
0
0
LTYPE
5
15
100
AcDbSymbolTableRecord
100
AcDbLinetypeTableRecord
2
BYLAYER
70
0
0
ENDTAB
0
TABLE
2
LAYER
5
2
100
AcDbSymbolTable
70
2
0
LAYER
5
50
100
AcDbSymbolTableRecord
100
AcDbLayerTableRecord
2
0
70
0
6
CONTINUOUS
0
ENDTAB
0
TABLE
2
STYLE
5
3
100
AcDbSymbolTable
70
1
0
STYLE
5
11
100
AcDbSymbolTableRecord
100
AcDbTextStyleTableRecord
2
STANDARD
70
0
0
ENDTAB
0
TABLE
2
VIEW
5
6
100
AcDbSymbolTable
70
0
0
ENDTAB
0
TABLE
2
UCS
5
7
100
AcDbSymbolTable
70
0
0
ENDTAB
0
TABLE
2
APPID
5
9
100
AcDbSymbolTable
70
2
0
APPID
5
12
100
AcDbSymbolTableRecord
100
AcDbRegAppTableRecord
2
ACAD
70
0
0
ENDTAB
0
TABLE
2
DIMSTYLE
5
A
100
AcDbSymbolTable
70
1
0
ENDTAB
0
TABLE
2
BLOCK_RECORD
5
1
100
AcDbSymbolTable
70
1
0
BLOCK_RECORD
5
1F
100
AcDbSymbolTableRecord
100
AcDbBlockTableRecord
2
*MODEL_SPACE
0
BLOCK_RECORD
5
1B
100
AcDbSymbolTableRecord
100
AcDbBlockTableRecord
2
*PAPER_SPACE
0
ENDTAB
0
ENDSEC
0
SECTION
2
BLOCKS
0
BLOCK
5
20
100
AcDbEntity
100
AcDbBlockBegin
2
*MODEL_SPACE
0
ENDBLK
5
21
100
AcDbEntity
100
AcDbBlockEnd
0
BLOCK
5
1C
100
AcDbEntity
100
AcDbBlockBegin
2
*PAPER_SPACE
0
ENDBLK
5
1D
100
AcDbEntity
100
AcDbBlockEnd
0
ENDSEC
0
SECTION
2
ENTITIES
0
CIRCLE
5
100
100
AcDbEntity
8
0
100
AcDbCircle
10
6.9981153818960804
20
-176.68422810655017
30
0
40
5.9700000000000006
210
0
220
0
230
1
0
CIRCLE
5
101
100
AcDbEntity
8
0
100
AcDbCircle
10
6.9981153818960804
20
-176.68422810655017
30
0
40
11
210
0
220
0
230
1
0
CIRCLE
5
102
100
AcDbEntity
8
0
100
AcDbCircle
10
6.9981153818960804
20
-176.68422810655017
30
0
40
13.379999999999995
210
0
220
0
230
1
0
CIRCLE
5
103
100
AcDbEntity
8
0
100
AcDbCircle
10
6.9981153818960804
20
-176.68422810655017
30
0
40
8.1999999999999957
210
0
220
0
230
1
0
LWPOLYLINE
5
104
100
AcDbEntity
8
0
100
AcDbPolyline
90
4
70
1
43
0.0
10
13.133444324453162
20
-185.81427404107981
10
13.603423763651712
20
-188.32013379463086
10
12.211273566600083
20
-185.86772317875733
10
11.571724229984088
20
-183.49026234865408
0
LWPOLYLINE
5
105
100
AcDbEntity
8
0
100
AcDbPolyline
90
4
70
1
43
0.0
10
13.773692054775783
20
-185.35088080312303
10
16.012254815353536
20
-186.57208380301881
10
14.11241376884008
20
-184.48809627954785
10
12.048596869105364
20
-183.1443083496552
0
CIRCLE
5
106
100
AcDbEntity
8
0
100
AcDbCircle
10
6.9981153818960804
20
-176.68422810655017
30
0
40
10.560000000000002
210
0
220
0
230
1
0
LWPOLYLINE
5
107
100
AcDbEntity
8
0
100
AcDbPolyline
90
4
70
1
43
0.0
10
16.12021469588224
20
-182.83293628948246
10
13.797683290879803
20
-181.26744490822108
10
16.175743108985323
20
-181.90770868016799
10
18.626586877014837
20
-183.30261542425913
0
LWPOLYLINE
5
108
100
AcDbEntity
8
0
100
AcDbPolyline
90
4
70
1
43
0.0
10
13.451056124963285
20
-181.74382846294822
10
15.654499305522807
20
-183.47149687732806
10
16.875829563064819
20
-185.70947949114537
10
14.793979489006839
20
-183.80729646389887
0
LWPOLYLINE
5
109
100
AcDbEntity
8
0
100
AcDbPolyline
90
4
70
1
43
0.0
10
17.573802698732539
20
-179.71311337832748
10
14.881180630347561
20
-178.9419442730902
10
17.340702302910689
20
-178.81601040811324
10
20.102643128408921
20
-179.38529318182611
0
LWPOLYLINE
5
110
100
AcDbEntity
8
0
100
AcDbPolyline
90
4
70
1
43
0.0
10
14.698729219729181
20
-179.50212564204952
10
17.328207115574621
20
-180.46433455661031
10
19.181335876343599
20
-182.21537069951171
10
16.613571915630452
20
-181.04961418888757
0
LWPOLYLINE
5
111
100
AcDbEntity
8
0
100
AcDbPolyline
90
4
70
1
43
0.0
10
17.992168741864596
20
-176.29680207328633
10
15.193028618751683
20
-176.39544264914491
10
17.493257027966802
20
-175.51563843138084
10
20.295936899360676
20
-175.20357187039815
0
LWPOLYLINE
5
112
100
AcDbEntity
8
0
100
AcDbPolyline
90
4
70
1
43
0.0
10
15.192612578716496
20
-176.9845873769296
10
17.990733572752688
20
-177.0871490790104
10
20.294263682137306
20
-178.17983513314249
10
17.491936461907098
20
-177.86461750870373
0
LWPOLYLINE
5
113
100
AcDbEntity
8
0
100
AcDbPolyline
90
4
70
1
43
0.0
10
17.334360242048916
20
-172.91841472773697
10
14.702701402214409
20
-173.87720935785705
10
16.61847416475382
20
-172.32965615409705
10
19.187547248812429
20
-171.1667875077033
0
LWPOLYLINE
5
114
100
AcDbEntity
8
0
100
AcDbPolyline
90
4
70
1
43
0.0
10
14.884361457659772
20
-174.43764785369882
10
17.577225971335153
20
-173.67052288931058
10
20.10567185259081
20
-173.99789913050353
10
17.343092686121473
20
-174.5640760895806
0
LWPOLYLINE
5
115
100
AcDbEntity
8
0
100
AcDbPolyline
90
4
70
1
43
0.0
10
15.664768078468931
20
-169.90865143367046
10
13.45819562500111
20
-171.63374661934085
10
14.801983554893745
20
-169.56992971960617
10
16.885971078364719
20
-167.67008867309269
0
LWPOLYLINE
5
116
100
AcDbEntity
8
0
100
AcDbPolyline
90
4
70
1
43
0.0
10
13.804149623999997
20
-172.11061925846212
10
16.128161316425711
20
-170.54889916399307
10
18.634021069976754
20
-170.07891972479453
10
16.18161045410325
20
-171.47106992184615
0
LWPOLYLINE
5
117
100
AcDbEntity
8
0
100
AcDbPolyline
90
4
70
1
43
0.0
10
13.146823564828356
20
-167.56212879256398
10
11.58133218356701
20
-169.88466019756643
10
12.221595955513909
20
-167.50660037946091
10
13.616502699605046
20
-165.05575661143141
0
LWPOLYLINE
5
118
100
AcDbEntity
8
0
100
AcDbPolyline
90
4
70
1
43
0.0
10
12.057715738294146
20
-170.23128736348295
10
13.785384152673945
20
-168.02784418292339
10
16.023366766491289
20
-166.80651392538141
10
14.121183739244767
20
-168.88836399943941
0
LWPOLYLINE
5
119
100
AcDbEntity
8
0
100
AcDbPolyline
90
4
70
1
43
0.0
10
10.027000653673426
20
-166.10854078971371
10
9.2558315484361486
20
-168.80116285809868
10
9.1298976834591805
20
-166.34164118553556
10
9.6991804571720408
20
-163.57970036003735
0
LWPOLYLINE
5
120
100
AcDbEntity
8
0
100
AcDbPolyline
90
4
70
1
43
0.0
10
9.8160129173954935
20
-168.98361426871708
10
10.778221831956252
20
-166.35413637287166
10
12.529257974857657
20
-164.50100761210265
10
11.363501464233483
20
-167.06877157281582
0
LWPOLYLINE
5
121
100
AcDbEntity
8
0
100
AcDbPolyline
90
4
70
1
43
0.0
10
6.6106893486322704
20
-165.69017474658168
10
6.7093299244908344
20
-168.48931486969457
10
5.8295257067267592
20
-166.18908646047944
10
5.5174591457440414
20
-163.38640658908557
0
LWPOLYLINE
5
122
100
AcDbEntity
8
0
100
AcDbPolyline
90
4
70
1
43
0.0
10
7.2984746522755373
20
-168.48973090972976
10
7.4010363543563074
20
-165.69160991569356
10
8.49372240848842
20
-163.38807980630895
10
8.1785047840496716
20
-166.19040702653916
0
LWPOLYLINE
5
123
100
AcDbEntity
8
0
100
AcDbPolyline
90
4
70
1
43
0.0
10
3.2323020030828875
20
-166.34798324639732
10
4.191096633202962
20
-168.97964208623182
10
2.6435434294429516
20
-167.06386932369242
10
1.4806747830492117
20
-164.49479623963381
0
LWPOLYLINE
5
124
100
AcDbEntity
8
0
100
AcDbPolyline
90
4
70
1
43
0.0
10
4.7515351290447416
20
-168.79798203078647
10
3.9844101646564756
20
-166.10511751711107
10
4.3117864058494426
20
-163.57667163585543
10
4.8779633649265275
20
-166.33925080232473
0
LWPOLYLINE
5
125
100
AcDbEntity
8
0
100
AcDbPolyline
90
4
70
1
43
0.0
10
0.22253870901637995
20
-168.0175754099773
10
1.9476338946867999
20
-170.22414786344513
10
-0.11618300504791623
20
-168.88035993355248
10
-2.0160240515613737
20
-166.79637241008152
0
LWPOLYLINE
5
126
100
AcDbEntity
8
0
100
AcDbPolyline
90
4
70
1
43
0.0
10
2.4245065338080751
20
-169.87819386444625
10
0.86278643933900057
20
-167.55418217202052
10
0.39280700014045156
20
-165.04832241846947
10
1.7849571971920808
20
-167.500733034343
0
LWPOLYLINE
5
127
100
AcDbEntity
8
0
100
AcDbPolyline
90
4
70
1
43
0.0
10
-2.12398393209007
20
-170.5355199236179
10
0.19854747291235597
20
-172.10101130487925
10
-2.1795123451931619
20
-171.46074753293234
10
-4.63035611322268
20
-170.0658407888412
0
LWPOLYLINE
5
128
100
AcDbEntity
8
0
100
AcDbPolyline
90
4
70
1
43
0.0
10
0.54517463882888251
20
-171.62462775015211
10
-1.6582685417306386
20
-169.89695933577229
10
-2.8795987992726513
20
-167.65897672195496
10
-0.79774872521467977
20
-169.56115974920149
0
LWPOLYLINE
5
129
100
AcDbEntity
8
0
100
AcDbPolyline
90
4
70
1
43
0.0
10
-3.5775719349403623
20
-173.6553428347728
10
-0.88494986655538455
20
-174.42651194001007
10
-3.344471539118512
20
-174.55244580498709
10
-6.1064123646167445
20
-173.98316303127419
0
LWPOLYLINE
5
130
100
AcDbEntity
8
0
100
AcDbPolyline
90
4
70
1
43
0.0
10
-0.702498455937004
20
-173.86633057105075
10
-3.3319763517824441
20
-172.90412165648999
10
-5.1851051125514225
20
-171.15308551358856
10
-2.617341151838275
20
-172.31884202421276
0
LWPOLYLINE
5
131
100
AcDbEntity
8
0
100
AcDbPolyline
90
4
70
1
43
0.0
10
-3.9959379780724191
20
-177.071654139814
10
-1.196797854959506
20
-176.97301356395542
10
-3.4970262641746253
20
-177.85281778171949
10
-6.2997061355684991
20
-178.16488434270224
0
LWPOLYLINE
5
132
100
AcDbEntity
8
0
100
AcDbPolyline
90
4
70
1
43
0.0
10
-1.1963818149243188
20
-176.38386883617073
10
-3.9945028089605294
20
-176.28130713408996
10
-6.2980329183451289
20
-175.18862107995784
10
-3.4957056981149215
20
-175.5038387043966
0
LWPOLYLINE
5
133
100
AcDbEntity
8
0
100
AcDbPolyline
90
4
70
1
43
0.0
10
-3.3381294782568105
20
-180.45004148536336
10
-0.70647063842226743
20
-179.49124685524328
10
-2.6222434009617146
20
-181.03880005900328
10
-5.1913164850203231
20
-182.20166870539703
0
LWPOLYLINE
5
134
100
AcDbEntity
8
0
100
AcDbPolyline
90
4
70
1
43
0.0
10
-0.88813069386766585
20
-178.93080835940151
10
-3.5809952075430473
20
-179.69793332378975
10
-6.1094410887987038
20
-179.37055708259678
10
-3.3468619223293672
20
-178.80438012351973
0
LWPOLYLINE
5
135
100
AcDbEntity
8
0
100
AcDbPolyline
90
4
70
1
43
0.0
10
-1.6685373146767901
20
-183.45980477942987
10
0.53803513879103093
20
-181.73470959375945
10
-0.8057527911016038
20
-183.79852649349417
10
-2.8897403145725775
20
-185.69836754000761
0
LWPOLYLINE
5
136
100
AcDbEntity
8
0
100
AcDbPolyline
90
4
70
1
43
0.0
10
0.19208113979214403
20
-181.25783695463815
10
-2.1319305526335697
20
-182.81955704910726
10
-4.6377903061846126
20
-183.2895364883058
10
-2.1853796903111089
20
-181.89738629125418
0
LWPOLYLINE
5
137
100
AcDbEntity
8
0
100
AcDbPolyline
90
4
70
1
43
0.0
10
0.84940719896380301
20
-185.80632742053632
10
2.4148985802251488
20
-183.4837960155339
10
1.7746348082782504
20
-185.86185583363942
10
0.37972806418711258
20
-188.31269960166892
0
LWPOLYLINE
5
138
100
AcDbEntity
8
0
100
AcDbPolyline
90
4
70
1
43
0.0
10
1.9385150254980132
20
-183.13716884961735
10
0.2108466111182139
20
-185.34061203017689
10
-2.0271360026991303
20
-186.56194228771886
10
-0.12495297545260797
20
-184.48009221366092
0
LWPOLYLINE
5
139
100
AcDbEntity
8
0
100
AcDbPolyline
90
4
70
1
43
0.0
10
3.9692301101187688
20
-187.25991542338662
10
4.7403992153560459
20
-184.56729335500165
10
4.866333080333014
20
-187.02681502756477
10
4.2970503066201537
20
-189.78875585306298
0
LWPOLYLINE
5
140
100
AcDbEntity
8
0
100
AcDbPolyline
90
4
70
1
43
0.0
10
4.180217846396701
20
-184.38484194438325
10
3.2180089318359428
20
-187.01431984022867
10
1.4669727889345374
20
-188.86744860099768
10
2.6327292995587115
20
-186.29968464028451
0
LWPOLYLINE
5
141
100
AcDbEntity
8
0
100
AcDbPolyline
90
4
70
1
43
0.0
10
7.3855414151599064
20
-187.67828146651865
10
7.2869008393013424
20
-184.87914134340576
10
8.1667050570654176
20
-187.17936975262089
10
8.4787716180481354
20
-189.98204962401473
0
LWPOLYLINE
5
142
100
AcDbEntity
8
0
100
AcDbPolyline
90
4
70
1
43
0.0
10
6.6977561115166395
20
-184.87872530337057
10
6.5951944094358694
20
-187.67684629740677
10
5.5025083553037568
20
-189.98037640679138
10
5.8177259797425052
20
-187.17804918656117
0
LWPOLYLINE
5
143
100
AcDbEntity
8
0
100
AcDbPolyline
90
4
70
1
43
0.0
10
10.763928760709272
20
-187.02047296670304
10
9.805134130589197
20
-184.38881412686851
10
11.352687334349207
20
-186.30458688940791
10
12.515555980742947
20
-188.87365997346652
0
LWPOLYLINE
5
144
100
AcDbEntity
8
0
100
AcDbPolyline
90
4
70
1
43
0.0
10
9.2446956347474085
20
-184.57047418231386
10
10.011820599135683
20
-187.26333869598929
10
9.6844443579427164
20
-189.7917845772449
10
9.1182673988656227
20
-187.02920541077563
0
ENDSEC
0
SECTION
2
OBJECTS
0
DICTIONARY
5
C
100
AcDbDictionary
3
ACAD_GROUP
350
D
3
ACAD_MLINESTYLE
350
17
0
DICTIONARY
5
D
100
AcDbDictionary
0
DICTIONARY
5
1A
330
C
100
AcDbDictionary
0
DICTIONARY
5
17
100
AcDbDictionary
0
ENDSEC
0
EOF
