0
SECTION
2
HEADER
9
$INSUNITS
70
4
9
$ACADVER
1
AC1014
9
$HANDSEED
5
FFFF
0
ENDSEC
0
SECTION
2
TABLES
0
TABLE
2
VPORT
5
8
100
AcDbSymbolTable
0
ENDTAB
0
TABLE
2
LTYPE
5
5
100
AcDbSymbolTable
0
LTYPE
5
14
100
AcDbSymbolTableRecord
100
AcDbLinetypeTableRecord
2
BYBLOCK
70
0
0
LTYPE
5
15
100
AcDbSymbolTableRecord
100
AcDbLinetypeTableRecord
2
BYLAYER
70
0
0
ENDTAB
0
TABLE
2
LAYER
5
2
100
AcDbSymbolTable
70
2
0
LAYER
5
50
100
AcDbSymbolTableRecord
100
AcDbLayerTableRecord
2
0
70
0
6
CONTINUOUS
0
ENDTAB
0
TABLE
2
STYLE
5
3
100
AcDbSymbolTable
70
1
0
STYLE
5
11
100
AcDbSymbolTableRecord
100
AcDbTextStyleTableRecord
2
STANDARD
70
0
0
ENDTAB
0
TABLE
2
VIEW
5
6
100
AcDbSymbolTable
70
0
0
ENDTAB
0
TABLE
2
UCS
5
7
100
AcDbSymbolTable
70
0
0
ENDTAB
0
TABLE
2
APPID
5
9
100
AcDbSymbolTable
70
2
0
APPID
5
12
100
AcDbSymbolTableRecord
100
AcDbRegAppTableRecord
2
ACAD
70
0
0
ENDTAB
0
TABLE
2
DIMSTYLE
5
A
100
AcDbSymbolTable
70
1
0
ENDTAB
0
TABLE
2
BLOCK_RECORD
5
1
100
AcDbSymbolTable
70
1
0
BLOCK_RECORD
5
1F
100
AcDbSymbolTableRecord
100
AcDbBlockTableRecord
2
*MODEL_SPACE
0
BLOCK_RECORD
5
1B
100
AcDbSymbolTableRecord
100
AcDbBlockTableRecord
2
*PAPER_SPACE
0
ENDTAB
0
ENDSEC
0
SECTION
2
BLOCKS
0
BLOCK
5
20
100
AcDbEntity
100
AcDbBlockBegin
2
*MODEL_SPACE
0
ENDBLK
5
21
100
AcDbEntity
100
AcDbBlockEnd
0
BLOCK
5
1C
100
AcDbEntity
100
AcDbBlockBegin
2
*PAPER_SPACE
0
ENDBLK
5
1D
100
AcDbEntity
100
AcDbBlockEnd
0
ENDSEC
0
SECTION
2
ENTITIES
0
CIRCLE
5
100
100
AcDbEntity
8
0
100
AcDbCircle
10
48.095937795724225
20
-98.10867023575922
30
0
40
9.5214841521666376
210
0
220
-0
230
1
0
LWPOLYLINE
5
101
100
AcDbEntity
8
0
100
AcDbPolyline
90
6
70
1
43
0.0
10
52.859077516538648
20
-100.85867023575922
10
48.095937795724225
20
-103.60867023575922
10
43.332798074909803
20
-100.85867023575922
10
43.332798074909803
20
-95.358670235759206
10
48.095937795724225
20
-92.608670235759206
10
52.859077516538648
20
-95.358670235759206
0
CIRCLE
5
102
100
AcDbEntity
8
0
100
AcDbCircle
10
48.095937795724225
20
-98.10867023575922
30
0
40
17.069999999999993
210
0
220
0
230
1
0
CIRCLE
5
103
100
AcDbEntity
8
0
100
AcDbCircle
10
48.095937795724225
20
-98.10867023575922
30
0
40
14.380000000000004
210
0
220
0
230
1
0
LWPOLYLINE
5
104
100
AcDbEntity
8
0
100
AcDbPolyline
90
4
70
1
43
0.0
10
51.729685212553065
20
-112.02198327438126
10
50.941665283938235
20
-114.93979423455451
10
50.05727252910664
20
-109.70903191389787
10
50.231175861096744
20
-106.28431708394768
0
LWPOLYLINE
5
105
100
AcDbEntity
8
0
100
AcDbPolyline
90
4
70
1
43
0.0
10
53.332299175266272
20
-111.49885757210674
10
55.680427982654763
20
-113.40116540837099
10
53.323326609387834
20
-108.64857683832381
10
51.173397608021496
20
-105.97821177804774
0
CIRCLE
5
106
100
AcDbEntity
8
0
100
AcDbCircle
10
48.095937795724225
20
-98.10867023575922
30
0
40
8.4498782820884255
210
0
220
0
230
1
0
CIRCLE
5
107
100
AcDbEntity
8
0
100
AcDbCircle
10
48.095937795724225
20
-98.10867023575922
30
0
40
11.765000000000001
210
0
220
0
230
1
0
LWPOLYLINE
5
108
100
AcDbEntity
8
0
100
AcDbPolyline
90
4
70
1
43
0.0
10
53.371909985336302
20
-104.70901571433456
10
54.605998399753673
20
-107.90838124843013
10
57.541474090733367
20
-112.32720546621334
10
57.074585481980634
20
-109.3411359368456
0
LWPOLYLINE
5
109
100
AcDbEntity
8
0
100
AcDbPolyline
90
4
70
1
43
0.0
10
58.325871795922097
20
-108.21139500441629
10
54.108168137782044
20
-104.04613849219217
10
57.158361331637963
20
-105.61118345838781
10
61.244732505290486
20
-108.9941696586466
0
LWPOLYLINE
5
110
100
AcDbEntity
8
0
100
AcDbPolyline
90
4
70
1
43
0.0
10
55.60038058728928
20
-101.99245464921951
10
58.029075649920102
20
-104.41327152129197
10
62.50806386211805
20
-107.25610278518923
10
60.866995998000974
20
-104.7180932358448
0
LWPOLYLINE
5
111
100
AcDbEntity
8
0
100
AcDbPolyline
90
4
70
1
43
0.0
10
61.550595891910902
20
-103.17707954385182
10
56.003369422002827
20
-101.08742300459362
10
59.426420694995358
20
-101.27653738406647
10
64.535490969592345
20
-102.70497216704733
0
LWPOLYLINE
5
112
100
AcDbEntity
8
0
100
AcDbPolyline
90
4
70
1
43
0.0
10
56.531264854858193
20
-98.604351975943416
10
59.734623125371598
20
-99.828038956380567
10
64.982666106568288
20
-100.6033259145528
10
62.451174529426225
20
-98.952221253406208
0
LWPOLYLINE
5
113
100
AcDbEntity
8
0
100
AcDbPolyline
90
4
70
1
43
0.0
10
62.448887371337527
20
-97.266390068865036
10
56.531303941278921
20
-97.61365410214421
10
59.735336630863145
20
-96.394138300633202
10
64.983701341480383
20
-95.621032315436153
0
LWPOLYLINE
5
114
100
AcDbEntity
8
0
100
AcDbPolyline
90
4
70
1
43
0.0
10
56.003604441362285
20
-95.130541426662276
10
59.427736173190233
20
-94.9455119196993
10
64.537399614963036
20
-93.519200413817629
10
61.553202216362806
20
-93.040491636596059
0
LWPOLYLINE
5
115
100
AcDbEntity
8
0
100
AcDbPolyline
90
4
70
1
43
0.0
10
60.865423476687198
20
-91.501338486609427
10
55.60068702109298
20
-94.225477986277269
10
58.031694767516555
20
-91.80819736481692
10
62.511863975791812
20
-88.967227659729886
0
LWPOLYLINE
5
116
100
AcDbEntity
8
0
100
AcDbPolyline
90
4
70
1
43
0.0
10
54.108636625939354
20
-92.171676403924877
10
57.16147833538858
20
-90.609923692255961
10
61.249255008819873
20
-87.228635939320583
10
58.32834662956175
20
-88.005096142538378
0
LWPOLYLINE
5
117
100
AcDbEntity
8
0
100
AcDbPolyline
90
4
70
1
43
0.0
10
57.07399950066285
20
-86.878754589506343
10
53.372430781334415
20
-91.508741088039869
10
54.610070260228682
20
-88.311665426385673
10
57.547382008991633
20
-83.894061472817739
0
LWPOLYLINE
5
118
100
AcDbEntity
8
0
100
AcDbPolyline
90
4
70
1
43
0.0
10
51.174018559118181
20
-90.239371550607288
10
53.327706180428656
20
-87.570936866157965
10
55.686782362396947
20
-82.819328236686289
10
53.334214596874226
20
-84.716700397287568
0
LWPOLYLINE
5
119
100
AcDbEntity
8
0
100
AcDbPolyline
90
4
70
1
43
0.0
10
51.730187092724556
20
-84.197925128221158
10
50.231820968929945
20
-89.933191897917055
10
50.062093070792386
20
-86.509124622489622
10
50.948659474042415
20
-81.278730276684712
0
LWPOLYLINE
5
120
100
AcDbEntity
8
0
100
AcDbPolyline
90
4
70
1
43
0.0
10
47.707172364820352
20
-89.667739930286743
10
48.589313742629692
20
-86.354019871966372
10
48.811783729738352
20
-81.053686665003269
10
47.43433691701712
20
-83.743897899335138
0
LWPOLYLINE
5
121
100
AcDbEntity
8
0
100
AcDbPolyline
90
4
70
1
43
0.0
10
45.757979965216578
20
-83.922389871181309
10
46.721897551988746
20
-89.77125718429626
10
45.174149772336904
20
-86.712250633691639
10
43.856675444749165
20
-81.573448594680286
0
LWPOLYLINE
5
122
100
AcDbEntity
8
0
100
AcDbPolyline
90
4
70
1
43
0.0
10
44.30754724534885
20
-90.555621843226831
10
43.765612121430983
20
-87.169588713320664
10
41.813008831832555
20
-82.237006692365568
10
41.648856039543745
20
-85.254895038210236
0
LWPOLYLINE
5
123
100
AcDbEntity
8
0
100
AcDbPolyline
90
4
70
1
43
0.0
10
40.190026986283449
20
-86.099791367488109
10
43.449558175953136
20
-91.050936930293147
10
40.791410166735957
20
-88.88592112731294
10
37.497698388428887
20
-84.727256952191169
0
LWPOLYLINE
5
124
100
AcDbEntity
8
0
100
AcDbPolyline
90
4
70
1
43
0.0
10
41.562969268484942
20
-92.749494440526249
10
39.690663149091336
20
-89.876624128340325
10
35.90060943040136
20
-86.164681535917282
10
36.978134167613007
20
-88.988426681623295
0
LWPOLYLINE
5
125
100
AcDbEntity
8
0
100
AcDbPolyline
90
4
70
1
43
0.0
10
35.989077809247547
20
-90.353637117358545
10
40.980620047209641
20
-93.550962882299274
10
37.671689747737332
20
-92.654288727829879
10
32.971253207612378
20
-90.194833232754206
0
LWPOLYLINE
5
126
100
AcDbEntity
8
0
100
AcDbPolyline
90
4
70
1
43
0.0
10
39.948000900136563
20
-95.870017219405128
10
37.069062522677442
20
-94.007055101123854
10
32.096893094414568
20
-92.157580533402594
10
34.229781545057847
20
-94.298931290358055
0
LWPOLYLINE
5
127
100
AcDbEntity
8
0
100
AcDbPolyline
90
4
70
1
43
0.0
10
33.88151471124354
20
-95.948398545664588
10
39.741984997816751
20
-96.839057841190083
10
36.354416517556146
20
-97.365768442568225
10
31.060003395526277
20
-97.030783826088964
0
LWPOLYLINE
5
128
100
AcDbEntity
8
0
100
AcDbPolyline
90
4
70
1
43
0.0
10
39.741884842718207
20
-99.377623442335818
10
36.35410880699034
20
-98.846692592689521
10
31.059556934042369
20
-99.179477004378001
10
33.879013308317809
20
-100.26817437314442
0
LWPOLYLINE
5
129
100
AcDbEntity
8
0
100
AcDbPolyline
90
4
70
1
43
0.0
10
34.231754498526016
20
-101.91669057464019
10
39.947824280460686
20
-100.34668031716841
10
37.06735898474232
20
-102.20570262640021
10
32.094421407839761
20
-104.05311077194632
0
LWPOLYLINE
5
130
100
AcDbEntity
8
0
100
AcDbPolyline
90
4
70
1
43
0.0
10
40.980260435063052
20
-102.66581612777142
10
37.669423994622889
20
-103.55871931401933
10
32.967965795316289
20
-106.01622125708516
10
35.986480472154589
20
-105.86401957209772
0
LWPOLYLINE
5
131
100
AcDbEntity
8
0
100
AcDbPolyline
90
4
70
1
43
0.0
10
36.979237530045204
20
-107.22654129224455
10
41.562546413181103
20
-103.4673305183878
10
39.687242919840422
20
-106.33722268951956
10
35.895646972831173
20
-110.04758994555003
0
LWPOLYLINE
5
132
100
AcDbEntity
8
0
100
AcDbPolyline
90
4
70
1
43
0.0
10
43.449001286965625
20
-105.16603688810741
10
40.78757814037008
20
-107.32838303757644
10
37.492138448771811
20
-111.48567810035928
10
40.187782818202692
20
-110.1188944156612
0
LWPOLYLINE
5
133
100
AcDbEntity
8
0
100
AcDbPolyline
90
4
70
1
43
0.0
10
41.6488990295517
20
-110.95982927092449
10
44.306951269940605
20
-105.6614196748403
10
43.761066589573559
20
-109.04595127933152
10
41.806413657263391
20
-113.97772143965034
0
LWPOLYLINE
5
134
100
AcDbEntity
8
0
100
AcDbPolyline
90
4
70
1
43
0.0
10
46.721239677325443
20
-106.44597484008911
10
45.169414064891107
20
-109.50387465923802
10
43.849804341808266
20
-114.64212875754271
10
45.756477003196842
20
-112.29709238905828
0
LWPOLYLINE
5
135
100
AcDbEntity
8
0
100
AcDbPolyline
90
4
70
1
43
0.0
10
47.433312101237917
20
-112.47103510330966
10
47.706506318870055
20
-106.5495698387011
10
48.584428871918774
20
-109.86352461463086
10
48.804696203768493
20
-115.16394981479357
0
ENDSEC
0
SECTION
2
OBJECTS
0
DICTIONARY
5
C
100
AcDbDictionary
3
ACAD_GROUP
350
D
3
ACAD_MLINESTYLE
350
17
0
DICTIONARY
5
D
100
AcDbDictionary
0
DICTIONARY
5
1A
330
C
100
AcDbDictionary
0
DICTIONARY
5
17
100
AcDbDictionary
0
ENDSEC
0
EOF
